%TF.GenerationSoftware,KiCad,Pcbnew,6.0.11+dfsg-1*%
%TF.CreationDate,2024-04-05T16:29:55+02:00*%
%TF.ProjectId,hexapad,68657861-7061-4642-9e6b-696361645f70,rev?*%
%TF.SameCoordinates,Original*%
%TF.FileFunction,Legend,Bot*%
%TF.FilePolarity,Positive*%
%FSLAX46Y46*%
G04 Gerber Fmt 4.6, Leading zero omitted, Abs format (unit mm)*
G04 Created by KiCad (PCBNEW 6.0.11+dfsg-1) date 2024-04-05 16:29:55*
%MOMM*%
%LPD*%
G01*
G04 APERTURE LIST*
G04 Aperture macros list*
%AMRoundRect*
0 Rectangle with rounded corners*
0 $1 Rounding radius*
0 $2 $3 $4 $5 $6 $7 $8 $9 X,Y pos of 4 corners*
0 Add a 4 corners polygon primitive as box body*
4,1,4,$2,$3,$4,$5,$6,$7,$8,$9,$2,$3,0*
0 Add four circle primitives for the rounded corners*
1,1,$1+$1,$2,$3*
1,1,$1+$1,$4,$5*
1,1,$1+$1,$6,$7*
1,1,$1+$1,$8,$9*
0 Add four rect primitives between the rounded corners*
20,1,$1+$1,$2,$3,$4,$5,0*
20,1,$1+$1,$4,$5,$6,$7,0*
20,1,$1+$1,$6,$7,$8,$9,0*
20,1,$1+$1,$8,$9,$2,$3,0*%
G04 Aperture macros list end*
%ADD10C,0.150000*%
%ADD11C,0.120000*%
%ADD12C,0.066040*%
%ADD13C,0.127000*%
%ADD14C,0.254000*%
%ADD15RoundRect,0.250000X-0.262500X-0.450000X0.262500X-0.450000X0.262500X0.450000X-0.262500X0.450000X0*%
%ADD16RoundRect,0.250000X1.075000X0.550000X-1.075000X0.550000X-1.075000X-0.550000X1.075000X-0.550000X0*%
%ADD17R,1.550000X1.300000*%
%ADD18R,0.600000X0.450000*%
%ADD19RoundRect,0.140000X-0.140000X-0.170000X0.140000X-0.170000X0.140000X0.170000X-0.140000X0.170000X0*%
%ADD20O,2.748280X1.998980*%
%ADD21O,1.016000X2.032000*%
%ADD22C,1.143000*%
G04 APERTURE END LIST*
D10*
X86125000Y-139475000D02*
X124625000Y-220075000D01*
X217700000Y-220075000D02*
X256700000Y-139725000D01*
X217075000Y-60475000D02*
X217100000Y-34775000D01*
X125300000Y-34800000D02*
X125300000Y-60475000D01*
X217100000Y-34775000D02*
X125300000Y-34800000D01*
X125300000Y-60475000D02*
X86125000Y-139475000D01*
X124625000Y-220075000D02*
X217700000Y-220075000D01*
X256700000Y-139725000D02*
X217075000Y-60475000D01*
X166170166Y-46302380D02*
X166503500Y-45826190D01*
X166741595Y-46302380D02*
X166741595Y-45302380D01*
X166360642Y-45302380D01*
X166265404Y-45350000D01*
X166217785Y-45397619D01*
X166170166Y-45492857D01*
X166170166Y-45635714D01*
X166217785Y-45730952D01*
X166265404Y-45778571D01*
X166360642Y-45826190D01*
X166741595Y-45826190D01*
X165836833Y-45302380D02*
X165217785Y-45302380D01*
X165551119Y-45683333D01*
X165408261Y-45683333D01*
X165313023Y-45730952D01*
X165265404Y-45778571D01*
X165217785Y-45873809D01*
X165217785Y-46111904D01*
X165265404Y-46207142D01*
X165313023Y-46254761D01*
X165408261Y-46302380D01*
X165693976Y-46302380D01*
X165789214Y-46254761D01*
X165836833Y-46207142D01*
X157684666Y-42874380D02*
X158018000Y-42398190D01*
X158256095Y-42874380D02*
X158256095Y-41874380D01*
X157875142Y-41874380D01*
X157779904Y-41922000D01*
X157732285Y-41969619D01*
X157684666Y-42064857D01*
X157684666Y-42207714D01*
X157732285Y-42302952D01*
X157779904Y-42350571D01*
X157875142Y-42398190D01*
X158256095Y-42398190D01*
X156779904Y-41874380D02*
X157256095Y-41874380D01*
X157303714Y-42350571D01*
X157256095Y-42302952D01*
X157160857Y-42255333D01*
X156922761Y-42255333D01*
X156827523Y-42302952D01*
X156779904Y-42350571D01*
X156732285Y-42445809D01*
X156732285Y-42683904D01*
X156779904Y-42779142D01*
X156827523Y-42826761D01*
X156922761Y-42874380D01*
X157160857Y-42874380D01*
X157256095Y-42826761D01*
X157303714Y-42779142D01*
X170281166Y-46302380D02*
X170614500Y-45826190D01*
X170852595Y-46302380D02*
X170852595Y-45302380D01*
X170471642Y-45302380D01*
X170376404Y-45350000D01*
X170328785Y-45397619D01*
X170281166Y-45492857D01*
X170281166Y-45635714D01*
X170328785Y-45730952D01*
X170376404Y-45778571D01*
X170471642Y-45826190D01*
X170852595Y-45826190D01*
X169900214Y-45397619D02*
X169852595Y-45350000D01*
X169757357Y-45302380D01*
X169519261Y-45302380D01*
X169424023Y-45350000D01*
X169376404Y-45397619D01*
X169328785Y-45492857D01*
X169328785Y-45588095D01*
X169376404Y-45730952D01*
X169947833Y-46302380D01*
X169328785Y-46302380D01*
X161899166Y-46430380D02*
X162232500Y-45954190D01*
X162470595Y-46430380D02*
X162470595Y-45430380D01*
X162089642Y-45430380D01*
X161994404Y-45478000D01*
X161946785Y-45525619D01*
X161899166Y-45620857D01*
X161899166Y-45763714D01*
X161946785Y-45858952D01*
X161994404Y-45906571D01*
X162089642Y-45954190D01*
X162470595Y-45954190D01*
X161042023Y-45763714D02*
X161042023Y-46430380D01*
X161280119Y-45382761D02*
X161518214Y-46097047D01*
X160899166Y-46097047D01*
X177841666Y-47832142D02*
X177889285Y-47879761D01*
X178032142Y-47927380D01*
X178127380Y-47927380D01*
X178270238Y-47879761D01*
X178365476Y-47784523D01*
X178413095Y-47689285D01*
X178460714Y-47498809D01*
X178460714Y-47355952D01*
X178413095Y-47165476D01*
X178365476Y-47070238D01*
X178270238Y-46975000D01*
X178127380Y-46927380D01*
X178032142Y-46927380D01*
X177889285Y-46975000D01*
X177841666Y-47022619D01*
X177460714Y-47022619D02*
X177413095Y-46975000D01*
X177317857Y-46927380D01*
X177079761Y-46927380D01*
X176984523Y-46975000D01*
X176936904Y-47022619D01*
X176889285Y-47117857D01*
X176889285Y-47213095D01*
X176936904Y-47355952D01*
X177508333Y-47927380D01*
X176889285Y-47927380D01*
X189438333Y-47829761D02*
X189295476Y-47877380D01*
X189057380Y-47877380D01*
X188962142Y-47829761D01*
X188914523Y-47782142D01*
X188866904Y-47686904D01*
X188866904Y-47591666D01*
X188914523Y-47496428D01*
X188962142Y-47448809D01*
X189057380Y-47401190D01*
X189247857Y-47353571D01*
X189343095Y-47305952D01*
X189390714Y-47258333D01*
X189438333Y-47163095D01*
X189438333Y-47067857D01*
X189390714Y-46972619D01*
X189343095Y-46925000D01*
X189247857Y-46877380D01*
X189009761Y-46877380D01*
X188866904Y-46925000D01*
X188533571Y-46877380D02*
X188295476Y-47877380D01*
X188105000Y-47163095D01*
X187914523Y-47877380D01*
X187676428Y-46877380D01*
X187343095Y-46972619D02*
X187295476Y-46925000D01*
X187200238Y-46877380D01*
X186962142Y-46877380D01*
X186866904Y-46925000D01*
X186819285Y-46972619D01*
X186771666Y-47067857D01*
X186771666Y-47163095D01*
X186819285Y-47305952D01*
X187390714Y-47877380D01*
X186771666Y-47877380D01*
X157494095Y-49224380D02*
X157494095Y-48224380D01*
X157256000Y-48224380D01*
X157113142Y-48272000D01*
X157017904Y-48367238D01*
X156970285Y-48462476D01*
X156922666Y-48652952D01*
X156922666Y-48795809D01*
X156970285Y-48986285D01*
X157017904Y-49081523D01*
X157113142Y-49176761D01*
X157256000Y-49224380D01*
X157494095Y-49224380D01*
X155970285Y-49224380D02*
X156541714Y-49224380D01*
X156256000Y-49224380D02*
X156256000Y-48224380D01*
X156351238Y-48367238D01*
X156446476Y-48462476D01*
X156541714Y-48510095D01*
X172731166Y-55862642D02*
X172778785Y-55910261D01*
X172921642Y-55957880D01*
X173016880Y-55957880D01*
X173159738Y-55910261D01*
X173254976Y-55815023D01*
X173302595Y-55719785D01*
X173350214Y-55529309D01*
X173350214Y-55386452D01*
X173302595Y-55195976D01*
X173254976Y-55100738D01*
X173159738Y-55005500D01*
X173016880Y-54957880D01*
X172921642Y-54957880D01*
X172778785Y-55005500D01*
X172731166Y-55053119D01*
X171778785Y-55957880D02*
X172350214Y-55957880D01*
X172064500Y-55957880D02*
X172064500Y-54957880D01*
X172159738Y-55100738D01*
X172254976Y-55195976D01*
X172350214Y-55243595D01*
X165027166Y-54347880D02*
X165360500Y-53871690D01*
X165598595Y-54347880D02*
X165598595Y-53347880D01*
X165217642Y-53347880D01*
X165122404Y-53395500D01*
X165074785Y-53443119D01*
X165027166Y-53538357D01*
X165027166Y-53681214D01*
X165074785Y-53776452D01*
X165122404Y-53824071D01*
X165217642Y-53871690D01*
X165598595Y-53871690D01*
X164074785Y-54347880D02*
X164646214Y-54347880D01*
X164360500Y-54347880D02*
X164360500Y-53347880D01*
X164455738Y-53490738D01*
X164550976Y-53585976D01*
X164646214Y-53633595D01*
X164203333Y-38534761D02*
X164060476Y-38582380D01*
X163822380Y-38582380D01*
X163727142Y-38534761D01*
X163679523Y-38487142D01*
X163631904Y-38391904D01*
X163631904Y-38296666D01*
X163679523Y-38201428D01*
X163727142Y-38153809D01*
X163822380Y-38106190D01*
X164012857Y-38058571D01*
X164108095Y-38010952D01*
X164155714Y-37963333D01*
X164203333Y-37868095D01*
X164203333Y-37772857D01*
X164155714Y-37677619D01*
X164108095Y-37630000D01*
X164012857Y-37582380D01*
X163774761Y-37582380D01*
X163631904Y-37630000D01*
X163298571Y-37582380D02*
X163060476Y-38582380D01*
X162870000Y-37868095D01*
X162679523Y-38582380D01*
X162441428Y-37582380D01*
X161536666Y-38582380D02*
X162108095Y-38582380D01*
X161822380Y-38582380D02*
X161822380Y-37582380D01*
X161917619Y-37725238D01*
X162012857Y-37820476D01*
X162108095Y-37868095D01*
D11*
X165776436Y-43465000D02*
X166230564Y-43465000D01*
X165776436Y-44935000D02*
X166230564Y-44935000D01*
X157290936Y-43465000D02*
X157745064Y-43465000D01*
X157290936Y-44935000D02*
X157745064Y-44935000D01*
X169887436Y-44935000D02*
X170341564Y-44935000D01*
X169887436Y-43465000D02*
X170341564Y-43465000D01*
X161505436Y-43465000D02*
X161959564Y-43465000D01*
X161505436Y-44935000D02*
X161959564Y-44935000D01*
X175420000Y-51280000D02*
X175420000Y-50080000D01*
X179940000Y-50215563D02*
X178875563Y-51280000D01*
X179940000Y-47824437D02*
X179940000Y-47960000D01*
X175420000Y-46760000D02*
X175420000Y-47960000D01*
X178875563Y-51280000D02*
X175420000Y-51280000D01*
X178875563Y-46760000D02*
X175420000Y-46760000D01*
X179940000Y-47824437D02*
X178875563Y-46760000D01*
X179940000Y-50215563D02*
X179940000Y-50080000D01*
X184875000Y-44240000D02*
X184875000Y-44270000D01*
X191335000Y-44240000D02*
X184875000Y-44240000D01*
X191335000Y-50700000D02*
X191335000Y-50670000D01*
X184875000Y-46170000D02*
X184875000Y-48770000D01*
X191335000Y-44270000D02*
X191335000Y-44240000D01*
X184875000Y-50700000D02*
X184875000Y-50670000D01*
X191335000Y-50700000D02*
X184875000Y-50700000D01*
X191335000Y-46170000D02*
X191335000Y-48770000D01*
X159218000Y-47590000D02*
X156668000Y-47590000D01*
X159218000Y-45890000D02*
X159218000Y-47590000D01*
X159218000Y-45890000D02*
X156668000Y-45890000D01*
X172456664Y-54705500D02*
X172672336Y-54705500D01*
X172456664Y-53985500D02*
X172672336Y-53985500D01*
D12*
X148931410Y-37703310D02*
X147153410Y-37703310D01*
D13*
X148220210Y-41048490D02*
X148220210Y-33695190D01*
X139220990Y-41048490D02*
X148220210Y-41048490D01*
D12*
X140295410Y-35036310D02*
X138517410Y-35036310D01*
X148931410Y-35036310D02*
X147153410Y-35036310D01*
X146264410Y-55483310D02*
X146264410Y-52943310D01*
X148931410Y-39100310D02*
X147153410Y-39100310D01*
D13*
X139220990Y-33695190D02*
X139220990Y-41048490D01*
D12*
X140295410Y-39100310D02*
X138517410Y-39100310D01*
D13*
X152614410Y-56118310D02*
X134816630Y-56118310D01*
D12*
X141184410Y-38338310D02*
X141184410Y-35798310D01*
D13*
X151943850Y-35120130D02*
X152614410Y-35790690D01*
D12*
X140295410Y-41769850D02*
X140295410Y-39100310D01*
D13*
X134816630Y-56118310D02*
X134816630Y-35120130D01*
D12*
X146264410Y-38338310D02*
X146264410Y-35798310D01*
X138517410Y-41769850D02*
X138517410Y-39100310D01*
X146264410Y-38338310D02*
X141184410Y-38338310D01*
X138517410Y-37703310D02*
X138517410Y-35036310D01*
X140295410Y-41769850D02*
X138517410Y-41769850D01*
X146264410Y-55483310D02*
X140549410Y-55483310D01*
D13*
X152614410Y-35790690D02*
X152614410Y-56118310D01*
D12*
X148931410Y-41769850D02*
X148931410Y-39100310D01*
X140295410Y-37703310D02*
X140295410Y-35036310D01*
X147153410Y-37703310D02*
X147153410Y-35036310D01*
D13*
X148215130Y-33695190D02*
X139220990Y-33695190D01*
D12*
X140295410Y-37703310D02*
X138517410Y-37703310D01*
X148931410Y-41769850D02*
X147153410Y-41769850D01*
X140549410Y-55483310D02*
X140549410Y-52943310D01*
X146264410Y-35798310D02*
X141184410Y-35798310D01*
X146264410Y-52943310D02*
X140549410Y-52943310D01*
X147153410Y-41769850D02*
X147153410Y-39100310D01*
D13*
X134816630Y-35120130D02*
X151943850Y-35120130D01*
D12*
X148931410Y-37703310D02*
X148931410Y-35036310D01*
D14*
X153630410Y-37957310D02*
G75*
G03*
X153630410Y-37957310I-127000J0D01*
G01*
D11*
X164633436Y-51510500D02*
X165087564Y-51510500D01*
X164633436Y-52980500D02*
X165087564Y-52980500D01*
X159640000Y-34900000D02*
X159640000Y-34930000D01*
X166100000Y-41360000D02*
X166100000Y-41330000D01*
X166100000Y-39430000D02*
X166100000Y-36830000D01*
X166100000Y-34900000D02*
X166100000Y-34930000D01*
X159640000Y-41330000D02*
X159640000Y-41360000D01*
X159640000Y-39430000D02*
X159640000Y-36830000D01*
X159640000Y-34900000D02*
X166100000Y-34900000D01*
X159640000Y-41360000D02*
X166100000Y-41360000D01*
%LPC*%
D15*
X165091000Y-44200000D03*
X166916000Y-44200000D03*
X156605500Y-44200000D03*
X158430500Y-44200000D03*
X169202000Y-44200000D03*
X171027000Y-44200000D03*
X160820000Y-44200000D03*
X162645000Y-44200000D03*
D16*
X179355000Y-49020000D03*
X176005000Y-49020000D03*
D17*
X192080000Y-45220000D03*
X184130000Y-45220000D03*
X184130000Y-49720000D03*
X192080000Y-49720000D03*
D18*
X158768000Y-46740000D03*
X156668000Y-46740000D03*
D19*
X172084500Y-54345500D03*
X173044500Y-54345500D03*
D20*
X151781290Y-38000490D03*
X151781290Y-40540490D03*
X151781290Y-43080490D03*
X151781290Y-45620490D03*
X151781290Y-48160490D03*
X151781290Y-50700490D03*
X151781290Y-53240490D03*
X135616730Y-53240490D03*
X135616730Y-50700490D03*
X135616730Y-48160490D03*
X135616730Y-45620490D03*
X135616730Y-43080490D03*
X135616730Y-40540490D03*
X135616730Y-38000490D03*
D21*
X144914410Y-54318310D03*
X142364410Y-54318310D03*
D22*
X144915607Y-37314123D03*
X142375607Y-37314123D03*
X144915607Y-39854123D03*
X142375607Y-39854123D03*
D15*
X163948000Y-52245500D03*
X165773000Y-52245500D03*
D17*
X166845000Y-40380000D03*
X158895000Y-40380000D03*
X158895000Y-35880000D03*
X166845000Y-35880000D03*
M02*
