%TF.GenerationSoftware,KiCad,Pcbnew,6.0.11+dfsg-1*%
%TF.CreationDate,2024-04-05T16:29:55+02:00*%
%TF.ProjectId,hexapad,68657861-7061-4642-9e6b-696361645f70,rev?*%
%TF.SameCoordinates,Original*%
%TF.FileFunction,Legend,Top*%
%TF.FilePolarity,Positive*%
%FSLAX46Y46*%
G04 Gerber Fmt 4.6, Leading zero omitted, Abs format (unit mm)*
G04 Created by KiCad (PCBNEW 6.0.11+dfsg-1) date 2024-04-05 16:29:55*
%MOMM*%
%LPD*%
G01*
G04 APERTURE LIST*
G04 Aperture macros list*
%AMRoundRect*
0 Rectangle with rounded corners*
0 $1 Rounding radius*
0 $2 $3 $4 $5 $6 $7 $8 $9 X,Y pos of 4 corners*
0 Add a 4 corners polygon primitive as box body*
4,1,4,$2,$3,$4,$5,$6,$7,$8,$9,$2,$3,0*
0 Add four circle primitives for the rounded corners*
1,1,$1+$1,$2,$3*
1,1,$1+$1,$4,$5*
1,1,$1+$1,$6,$7*
1,1,$1+$1,$8,$9*
0 Add four rect primitives between the rounded corners*
20,1,$1+$1,$2,$3,$4,$5,0*
20,1,$1+$1,$4,$5,$6,$7,0*
20,1,$1+$1,$6,$7,$8,$9,0*
20,1,$1+$1,$8,$9,$2,$3,0*%
G04 Aperture macros list end*
%ADD10C,0.150000*%
%ADD11C,0.120042*%
%ADD12C,0.127000*%
%ADD13RoundRect,0.102000X-0.250000X-0.250000X0.250000X-0.250000X0.250000X0.250000X-0.250000X0.250000X0*%
G04 APERTURE END LIST*
D10*
X125300000Y-60475000D02*
X86125000Y-139475000D01*
X217100000Y-34800000D02*
X125300000Y-34798000D01*
X124625000Y-220075000D02*
X217700000Y-220075000D01*
X256700000Y-139725000D02*
X217075000Y-60475000D01*
X217700000Y-220075000D02*
X256700000Y-139725000D01*
X217075000Y-60475000D02*
X217100000Y-34800000D01*
X125300000Y-34798000D02*
X125300000Y-60475000D01*
X86125000Y-139475000D02*
X124625000Y-220075000D01*
D11*
X172075002Y-53229557D02*
X172075002Y-53618263D01*
X172097867Y-53663993D01*
X172120732Y-53686858D01*
X172166462Y-53709723D01*
X172257922Y-53709723D01*
X172303652Y-53686858D01*
X172326517Y-53663993D01*
X172349382Y-53618263D01*
X172349382Y-53229557D01*
X172555168Y-53275288D02*
X172578033Y-53252423D01*
X172623763Y-53229557D01*
X172738088Y-53229557D01*
X172783818Y-53252423D01*
X172806683Y-53275288D01*
X172829548Y-53321018D01*
X172829548Y-53366748D01*
X172806683Y-53435343D01*
X172532303Y-53709723D01*
X172829548Y-53709723D01*
D12*
X169264500Y-50260000D02*
X169264500Y-52660000D01*
X173664500Y-50260000D02*
X169264500Y-50260000D01*
X169264500Y-52660000D02*
X173664500Y-52660000D01*
X173664500Y-52660000D02*
X173664500Y-50260000D01*
D10*
X173162500Y-52956000D02*
G75*
G03*
X173162500Y-52956000I-75000J0D01*
G01*
%LPC*%
D13*
X173064500Y-52260000D03*
X172264500Y-52260000D03*
X171464500Y-52260000D03*
X170664500Y-52260000D03*
X169864500Y-52260000D03*
X169864500Y-51460000D03*
X169864500Y-50660000D03*
X170664500Y-50660000D03*
X171464500Y-50660000D03*
X172264500Y-50660000D03*
X173064500Y-50660000D03*
X173064500Y-51460000D03*
M02*
