%TF.GenerationSoftware,KiCad,Pcbnew,6.0.11+dfsg-1*%
%TF.CreationDate,2024-04-05T16:29:56+02:00*%
%TF.ProjectId,hexapad,68657861-7061-4642-9e6b-696361645f70,rev?*%
%TF.SameCoordinates,Original*%
%TF.FileFunction,Profile,NP*%
%FSLAX46Y46*%
G04 Gerber Fmt 4.6, Leading zero omitted, Abs format (unit mm)*
G04 Created by KiCad (PCBNEW 6.0.11+dfsg-1) date 2024-04-05 16:29:56*
%MOMM*%
%LPD*%
G01*
G04 APERTURE LIST*
%TA.AperFunction,Profile*%
%ADD10C,0.100000*%
%TD*%
G04 APERTURE END LIST*
D10*
X134758000Y-220075000D02*
X207650000Y-220075000D01*
X207650000Y-220075000D02*
X207650000Y-234450000D01*
X207650000Y-234450000D02*
X134758000Y-234450000D01*
X134758000Y-234450000D02*
X134758000Y-220075000D01*
X266145579Y-44755943D02*
X266095579Y-134849943D01*
X254099579Y-134853943D01*
X217149579Y-60328943D01*
X217174993Y-44753995D01*
X266145993Y-44751995D01*
X266145579Y-44755943D01*
X266096000Y-234446000D02*
X217725000Y-234425000D01*
X217725000Y-220050000D01*
X254075000Y-145100000D01*
X266046000Y-145100000D01*
X266096000Y-234446000D01*
X124625000Y-220075000D02*
X124625000Y-234450000D01*
X76279000Y-234446000D01*
X76329000Y-145100000D01*
X88800000Y-145100000D01*
X124625000Y-220075000D01*
X125274586Y-44901988D02*
X125300000Y-60476936D01*
X88350000Y-135001936D01*
X76354000Y-134997936D01*
X76304000Y-44903936D01*
X76303586Y-44899988D01*
X125274586Y-44901988D01*
X272150000Y-139950000D02*
G75*
G03*
X272150000Y-139950000I-1000000J0D01*
G01*
X172150000Y-239500000D02*
G75*
G03*
X172150000Y-239500000I-1000000J0D01*
G01*
X255375000Y-139700000D02*
G75*
G03*
X255375000Y-139700000I-1000000J0D01*
G01*
X89525000Y-139675000D02*
G75*
G03*
X89525000Y-139675000I-1000000J0D01*
G01*
X272150000Y-39850000D02*
G75*
G03*
X272150000Y-39850000I-1000000J0D01*
G01*
X72250000Y-139850000D02*
G75*
G03*
X72250000Y-139850000I-1000000J0D01*
G01*
X72250000Y-239500000D02*
G75*
G03*
X72250000Y-239500000I-1000000J0D01*
G01*
X215100000Y-37775000D02*
G75*
G03*
X215100000Y-37775000I-1000000J0D01*
G01*
X72250000Y-39850000D02*
G75*
G03*
X72250000Y-39850000I-1000000J0D01*
G01*
X129325000Y-37825000D02*
G75*
G03*
X129325000Y-37825000I-1000000J0D01*
G01*
X217225000Y-218075000D02*
G75*
G03*
X217225000Y-218075000I-1000000J0D01*
G01*
X127100000Y-218025000D02*
G75*
G03*
X127100000Y-218025000I-1000000J0D01*
G01*
X272150000Y-239500000D02*
G75*
G03*
X272150000Y-239500000I-1000000J0D01*
G01*
X66196000Y-34798000D02*
X276196000Y-34798000D01*
X276196000Y-34798000D02*
X276196000Y-244544000D01*
X276196000Y-244544000D02*
X66196000Y-244544000D01*
X66196000Y-244544000D02*
X66196000Y-34798000D01*
M02*
