M48
; DRILL file {KiCad 6.0.11+dfsg-1} date ven. 05 avril 2024 16:30:40
; FORMAT={-:-/ absolute / metric / decimal}
; #@! TF.CreationDate,2024-04-05T16:30:40+02:00
; #@! TF.GenerationSoftware,Kicad,Pcbnew,6.0.11+dfsg-1
; #@! TF.FileFunction,Plated,1,2,PTH
FMAT,2
METRIC
; #@! TA.AperFunction,Plated,PTH,ViaDrill
T1C0.400
%
G90
G05
T1
X120.522Y-148.097
X130.19Y-43.08
X133.196Y-40.54
X135.112Y-80.437
X135.592Y-64.667
X143.29Y-56.94
X143.872Y-139.917
X155.13Y-36.68
X156.21Y-39.15
X159.64Y-45.17
X160.25Y-47.41
X162.646Y-46.05
X167.768Y-52.26
X167.99Y-46.01
X170.195Y-54.405
X171.027Y-45.887
X172.226Y-53.389
X204.402Y-208.827
X205.952Y-89.277
X206.902Y-147.057
T0
M30
