%TF.GenerationSoftware,KiCad,Pcbnew,6.0.11+dfsg-1*%
%TF.CreationDate,2024-04-05T16:30:58+02:00*%
%TF.ProjectId,hexapad,68657861-7061-4642-9e6b-696361645f70,rev?*%
%TF.SameCoordinates,Original*%
%TF.FileFunction,Drillmap*%
%TF.FilePolarity,Positive*%
%FSLAX45Y45*%
G04 Gerber Fmt 4.5, Leading zero omitted, Abs format (unit mm)*
G04 Created by KiCad (PCBNEW 6.0.11+dfsg-1) date 2024-04-05 16:30:58*
%MOMM*%
%LPD*%
G01*
G04 APERTURE LIST*
%ADD10C,0.100000*%
%ADD11C,0.200000*%
%ADD12C,0.040000*%
G04 APERTURE END LIST*
D10*
X13475800Y-22007500D02*
X20765000Y-22007500D01*
X20765000Y-22007500D02*
X20765000Y-23445000D01*
X20765000Y-23445000D02*
X13475800Y-23445000D01*
X13475800Y-23445000D02*
X13475800Y-22007500D01*
X26614558Y-4475594D02*
X26609558Y-13484994D01*
X25409958Y-13485394D01*
X21714958Y-6032894D01*
X21717499Y-4475400D01*
X26614599Y-4475200D01*
X26614558Y-4475594D01*
X26609600Y-23444600D02*
X21772500Y-23442500D01*
X21772500Y-22005000D01*
X25407500Y-14510000D01*
X26604600Y-14510000D01*
X26609600Y-23444600D01*
X12462500Y-22007500D02*
X12462500Y-23445000D01*
X7627900Y-23444600D01*
X7632900Y-14510000D01*
X8880000Y-14510000D01*
X12462500Y-22007500D01*
X12527459Y-4490199D02*
X12530000Y-6047694D01*
X8835000Y-13500194D01*
X7635400Y-13499794D01*
X7630400Y-4490394D01*
X7630359Y-4489999D01*
X12527459Y-4490199D01*
X27215000Y-13995000D02*
G75*
G03*
X27215000Y-13995000I-100000J0D01*
G01*
X17215000Y-23950000D02*
G75*
G03*
X17215000Y-23950000I-100000J0D01*
G01*
X25537500Y-13970000D02*
G75*
G03*
X25537500Y-13970000I-100000J0D01*
G01*
X8952500Y-13967500D02*
G75*
G03*
X8952500Y-13967500I-100000J0D01*
G01*
X27215000Y-3985000D02*
G75*
G03*
X27215000Y-3985000I-100000J0D01*
G01*
X7225000Y-13985000D02*
G75*
G03*
X7225000Y-13985000I-100000J0D01*
G01*
X7225000Y-23950000D02*
G75*
G03*
X7225000Y-23950000I-100000J0D01*
G01*
X21510000Y-3777500D02*
G75*
G03*
X21510000Y-3777500I-100000J0D01*
G01*
X7225000Y-3985000D02*
G75*
G03*
X7225000Y-3985000I-100000J0D01*
G01*
X12932500Y-3782500D02*
G75*
G03*
X12932500Y-3782500I-100000J0D01*
G01*
X21722500Y-21807500D02*
G75*
G03*
X21722500Y-21807500I-100000J0D01*
G01*
X12710000Y-21802500D02*
G75*
G03*
X12710000Y-21802500I-100000J0D01*
G01*
X27215000Y-23950000D02*
G75*
G03*
X27215000Y-23950000I-100000J0D01*
G01*
X6619600Y-3479800D02*
X27619600Y-3479800D01*
X27619600Y-3479800D02*
X27619600Y-24454400D01*
X27619600Y-24454400D02*
X6619600Y-24454400D01*
X6619600Y-24454400D02*
X6619600Y-3479800D01*
D11*
D12*
X12032223Y-14789665D02*
X12072223Y-14829665D01*
X12072223Y-14789665D02*
X12032223Y-14829665D01*
X12998951Y-4288049D02*
X13038951Y-4328049D01*
X13038951Y-4288049D02*
X12998951Y-4328049D01*
X13299551Y-4034049D02*
X13339551Y-4074049D01*
X13339551Y-4034049D02*
X13299551Y-4074049D01*
X13491223Y-8023665D02*
X13531223Y-8063665D01*
X13531223Y-8023665D02*
X13491223Y-8063665D01*
X13539223Y-6446665D02*
X13579223Y-6486665D01*
X13579223Y-6446665D02*
X13539223Y-6486665D01*
X14309000Y-5674000D02*
X14349000Y-5714000D01*
X14349000Y-5674000D02*
X14309000Y-5714000D01*
X14367223Y-13971665D02*
X14407223Y-14011665D01*
X14407223Y-13971665D02*
X14367223Y-14011665D01*
X15493000Y-3648000D02*
X15533000Y-3688000D01*
X15533000Y-3648000D02*
X15493000Y-3688000D01*
X15601000Y-3895000D02*
X15641000Y-3935000D01*
X15641000Y-3895000D02*
X15601000Y-3935000D01*
X15944000Y-4497000D02*
X15984000Y-4537000D01*
X15984000Y-4497000D02*
X15944000Y-4537000D01*
X16005000Y-4721000D02*
X16045000Y-4761000D01*
X16045000Y-4721000D02*
X16005000Y-4761000D01*
X16244600Y-4585000D02*
X16284600Y-4625000D01*
X16284600Y-4585000D02*
X16244600Y-4625000D01*
X16756800Y-5206000D02*
X16796800Y-5246000D01*
X16796800Y-5206000D02*
X16756800Y-5246000D01*
X16779000Y-4581000D02*
X16819000Y-4621000D01*
X16819000Y-4581000D02*
X16779000Y-4621000D01*
X16999450Y-5420550D02*
X17039450Y-5460550D01*
X17039450Y-5420550D02*
X16999450Y-5460550D01*
X17082700Y-4568700D02*
X17122700Y-4608700D01*
X17122700Y-4568700D02*
X17082700Y-4608700D01*
X17202650Y-5318950D02*
X17242650Y-5358950D01*
X17242650Y-5318950D02*
X17202650Y-5358950D01*
X20420223Y-20862665D02*
X20460223Y-20902665D01*
X20460223Y-20862665D02*
X20420223Y-20902665D01*
X20575223Y-8907665D02*
X20615223Y-8947665D01*
X20615223Y-8907665D02*
X20575223Y-8947665D01*
X20670223Y-14685665D02*
X20710223Y-14725665D01*
X20710223Y-14685665D02*
X20670223Y-14725665D01*
D11*
X6872219Y-24769876D02*
X6872219Y-24569876D01*
X6919838Y-24569876D01*
X6948409Y-24579400D01*
X6967457Y-24598448D01*
X6976981Y-24617495D01*
X6986505Y-24655590D01*
X6986505Y-24684162D01*
X6976981Y-24722257D01*
X6967457Y-24741305D01*
X6948409Y-24760352D01*
X6919838Y-24769876D01*
X6872219Y-24769876D01*
X7072219Y-24769876D02*
X7072219Y-24636543D01*
X7072219Y-24674638D02*
X7081743Y-24655590D01*
X7091267Y-24646067D01*
X7110314Y-24636543D01*
X7129362Y-24636543D01*
X7196028Y-24769876D02*
X7196028Y-24636543D01*
X7196028Y-24569876D02*
X7186505Y-24579400D01*
X7196028Y-24588924D01*
X7205552Y-24579400D01*
X7196028Y-24569876D01*
X7196028Y-24588924D01*
X7319838Y-24769876D02*
X7300790Y-24760352D01*
X7291267Y-24741305D01*
X7291267Y-24569876D01*
X7424600Y-24769876D02*
X7405552Y-24760352D01*
X7396028Y-24741305D01*
X7396028Y-24569876D01*
X7653171Y-24769876D02*
X7653171Y-24569876D01*
X7719838Y-24712733D01*
X7786505Y-24569876D01*
X7786505Y-24769876D01*
X7967457Y-24769876D02*
X7967457Y-24665114D01*
X7957933Y-24646067D01*
X7938886Y-24636543D01*
X7900790Y-24636543D01*
X7881743Y-24646067D01*
X7967457Y-24760352D02*
X7948409Y-24769876D01*
X7900790Y-24769876D01*
X7881743Y-24760352D01*
X7872219Y-24741305D01*
X7872219Y-24722257D01*
X7881743Y-24703209D01*
X7900790Y-24693686D01*
X7948409Y-24693686D01*
X7967457Y-24684162D01*
X8062695Y-24636543D02*
X8062695Y-24836543D01*
X8062695Y-24646067D02*
X8081743Y-24636543D01*
X8119838Y-24636543D01*
X8138886Y-24646067D01*
X8148409Y-24655590D01*
X8157933Y-24674638D01*
X8157933Y-24731781D01*
X8148409Y-24750828D01*
X8138886Y-24760352D01*
X8119838Y-24769876D01*
X8081743Y-24769876D01*
X8062695Y-24760352D01*
X8243648Y-24750828D02*
X8253171Y-24760352D01*
X8243648Y-24769876D01*
X8234124Y-24760352D01*
X8243648Y-24750828D01*
X8243648Y-24769876D01*
X8243648Y-24646067D02*
X8253171Y-24655590D01*
X8243648Y-24665114D01*
X8234124Y-24655590D01*
X8243648Y-24646067D01*
X8243648Y-24665114D01*
D12*
X6574600Y-25079400D02*
X6614600Y-25119400D01*
X6614600Y-25079400D02*
X6574600Y-25119400D01*
D11*
X6910314Y-24989876D02*
X6929362Y-24989876D01*
X6948409Y-24999400D01*
X6957933Y-25008924D01*
X6967457Y-25027971D01*
X6976981Y-25066067D01*
X6976981Y-25113686D01*
X6967457Y-25151781D01*
X6957933Y-25170828D01*
X6948409Y-25180352D01*
X6929362Y-25189876D01*
X6910314Y-25189876D01*
X6891267Y-25180352D01*
X6881743Y-25170828D01*
X6872219Y-25151781D01*
X6862695Y-25113686D01*
X6862695Y-25066067D01*
X6872219Y-25027971D01*
X6881743Y-25008924D01*
X6891267Y-24999400D01*
X6910314Y-24989876D01*
X7062695Y-25170828D02*
X7072219Y-25180352D01*
X7062695Y-25189876D01*
X7053171Y-25180352D01*
X7062695Y-25170828D01*
X7062695Y-25189876D01*
X7243648Y-25056543D02*
X7243648Y-25189876D01*
X7196028Y-24980352D02*
X7148409Y-25123209D01*
X7272219Y-25123209D01*
X7386505Y-24989876D02*
X7405552Y-24989876D01*
X7424600Y-24999400D01*
X7434124Y-25008924D01*
X7443648Y-25027971D01*
X7453171Y-25066067D01*
X7453171Y-25113686D01*
X7443648Y-25151781D01*
X7434124Y-25170828D01*
X7424600Y-25180352D01*
X7405552Y-25189876D01*
X7386505Y-25189876D01*
X7367457Y-25180352D01*
X7357933Y-25170828D01*
X7348409Y-25151781D01*
X7338886Y-25113686D01*
X7338886Y-25066067D01*
X7348409Y-25027971D01*
X7357933Y-25008924D01*
X7367457Y-24999400D01*
X7386505Y-24989876D01*
X7576981Y-24989876D02*
X7596028Y-24989876D01*
X7615076Y-24999400D01*
X7624600Y-25008924D01*
X7634124Y-25027971D01*
X7643648Y-25066067D01*
X7643648Y-25113686D01*
X7634124Y-25151781D01*
X7624600Y-25170828D01*
X7615076Y-25180352D01*
X7596028Y-25189876D01*
X7576981Y-25189876D01*
X7557933Y-25180352D01*
X7548409Y-25170828D01*
X7538886Y-25151781D01*
X7529362Y-25113686D01*
X7529362Y-25066067D01*
X7538886Y-25027971D01*
X7548409Y-25008924D01*
X7557933Y-24999400D01*
X7576981Y-24989876D01*
X7729362Y-25189876D02*
X7729362Y-25056543D01*
X7729362Y-25075590D02*
X7738886Y-25066067D01*
X7757933Y-25056543D01*
X7786505Y-25056543D01*
X7805552Y-25066067D01*
X7815076Y-25085114D01*
X7815076Y-25189876D01*
X7815076Y-25085114D02*
X7824600Y-25066067D01*
X7843648Y-25056543D01*
X7872219Y-25056543D01*
X7891267Y-25066067D01*
X7900790Y-25085114D01*
X7900790Y-25189876D01*
X7996028Y-25189876D02*
X7996028Y-25056543D01*
X7996028Y-25075590D02*
X8005552Y-25066067D01*
X8024600Y-25056543D01*
X8053171Y-25056543D01*
X8072219Y-25066067D01*
X8081743Y-25085114D01*
X8081743Y-25189876D01*
X8081743Y-25085114D02*
X8091267Y-25066067D01*
X8110314Y-25056543D01*
X8138886Y-25056543D01*
X8157933Y-25066067D01*
X8167457Y-25085114D01*
X8167457Y-25189876D01*
X8557933Y-24980352D02*
X8386505Y-25237495D01*
X8815076Y-24989876D02*
X8834124Y-24989876D01*
X8853171Y-24999400D01*
X8862695Y-25008924D01*
X8872219Y-25027971D01*
X8881743Y-25066067D01*
X8881743Y-25113686D01*
X8872219Y-25151781D01*
X8862695Y-25170828D01*
X8853171Y-25180352D01*
X8834124Y-25189876D01*
X8815076Y-25189876D01*
X8796029Y-25180352D01*
X8786505Y-25170828D01*
X8776981Y-25151781D01*
X8767457Y-25113686D01*
X8767457Y-25066067D01*
X8776981Y-25027971D01*
X8786505Y-25008924D01*
X8796029Y-24999400D01*
X8815076Y-24989876D01*
X8967457Y-25170828D02*
X8976981Y-25180352D01*
X8967457Y-25189876D01*
X8957933Y-25180352D01*
X8967457Y-25170828D01*
X8967457Y-25189876D01*
X9100790Y-24989876D02*
X9119838Y-24989876D01*
X9138886Y-24999400D01*
X9148410Y-25008924D01*
X9157933Y-25027971D01*
X9167457Y-25066067D01*
X9167457Y-25113686D01*
X9157933Y-25151781D01*
X9148410Y-25170828D01*
X9138886Y-25180352D01*
X9119838Y-25189876D01*
X9100790Y-25189876D01*
X9081743Y-25180352D01*
X9072219Y-25170828D01*
X9062695Y-25151781D01*
X9053171Y-25113686D01*
X9053171Y-25066067D01*
X9062695Y-25027971D01*
X9072219Y-25008924D01*
X9081743Y-24999400D01*
X9100790Y-24989876D01*
X9357933Y-25189876D02*
X9243648Y-25189876D01*
X9300790Y-25189876D02*
X9300790Y-24989876D01*
X9281743Y-25018448D01*
X9262695Y-25037495D01*
X9243648Y-25047019D01*
X9538886Y-24989876D02*
X9443648Y-24989876D01*
X9434124Y-25085114D01*
X9443648Y-25075590D01*
X9462695Y-25066067D01*
X9510314Y-25066067D01*
X9529362Y-25075590D01*
X9538886Y-25085114D01*
X9548410Y-25104162D01*
X9548410Y-25151781D01*
X9538886Y-25170828D01*
X9529362Y-25180352D01*
X9510314Y-25189876D01*
X9462695Y-25189876D01*
X9443648Y-25180352D01*
X9434124Y-25170828D01*
X9615076Y-24989876D02*
X9748410Y-24989876D01*
X9662695Y-25189876D01*
X9815076Y-24989876D02*
X9815076Y-25027971D01*
X9891267Y-24989876D02*
X9891267Y-25027971D01*
X10186505Y-25266067D02*
X10176981Y-25256543D01*
X10157933Y-25227971D01*
X10148410Y-25208924D01*
X10138886Y-25180352D01*
X10129362Y-25132733D01*
X10129362Y-25094638D01*
X10138886Y-25047019D01*
X10148410Y-25018448D01*
X10157933Y-24999400D01*
X10176981Y-24970828D01*
X10186505Y-24961305D01*
X10253171Y-25008924D02*
X10262695Y-24999400D01*
X10281743Y-24989876D01*
X10329362Y-24989876D01*
X10348410Y-24999400D01*
X10357933Y-25008924D01*
X10367457Y-25027971D01*
X10367457Y-25047019D01*
X10357933Y-25075590D01*
X10243648Y-25189876D01*
X10367457Y-25189876D01*
X10491267Y-24989876D02*
X10510314Y-24989876D01*
X10529362Y-24999400D01*
X10538886Y-25008924D01*
X10548410Y-25027971D01*
X10557933Y-25066067D01*
X10557933Y-25113686D01*
X10548410Y-25151781D01*
X10538886Y-25170828D01*
X10529362Y-25180352D01*
X10510314Y-25189876D01*
X10491267Y-25189876D01*
X10472219Y-25180352D01*
X10462695Y-25170828D01*
X10453171Y-25151781D01*
X10443648Y-25113686D01*
X10443648Y-25066067D01*
X10453171Y-25027971D01*
X10462695Y-25008924D01*
X10472219Y-24999400D01*
X10491267Y-24989876D01*
X10796029Y-25189876D02*
X10796029Y-24989876D01*
X10881743Y-25189876D02*
X10881743Y-25085114D01*
X10872219Y-25066067D01*
X10853171Y-25056543D01*
X10824600Y-25056543D01*
X10805552Y-25066067D01*
X10796029Y-25075590D01*
X11005552Y-25189876D02*
X10986505Y-25180352D01*
X10976981Y-25170828D01*
X10967457Y-25151781D01*
X10967457Y-25094638D01*
X10976981Y-25075590D01*
X10986505Y-25066067D01*
X11005552Y-25056543D01*
X11034124Y-25056543D01*
X11053171Y-25066067D01*
X11062695Y-25075590D01*
X11072219Y-25094638D01*
X11072219Y-25151781D01*
X11062695Y-25170828D01*
X11053171Y-25180352D01*
X11034124Y-25189876D01*
X11005552Y-25189876D01*
X11186505Y-25189876D02*
X11167457Y-25180352D01*
X11157933Y-25161305D01*
X11157933Y-24989876D01*
X11338886Y-25180352D02*
X11319838Y-25189876D01*
X11281743Y-25189876D01*
X11262695Y-25180352D01*
X11253171Y-25161305D01*
X11253171Y-25085114D01*
X11262695Y-25066067D01*
X11281743Y-25056543D01*
X11319838Y-25056543D01*
X11338886Y-25066067D01*
X11348409Y-25085114D01*
X11348409Y-25104162D01*
X11253171Y-25123209D01*
X11424600Y-25180352D02*
X11443648Y-25189876D01*
X11481743Y-25189876D01*
X11500790Y-25180352D01*
X11510314Y-25161305D01*
X11510314Y-25151781D01*
X11500790Y-25132733D01*
X11481743Y-25123209D01*
X11453171Y-25123209D01*
X11434124Y-25113686D01*
X11424600Y-25094638D01*
X11424600Y-25085114D01*
X11434124Y-25066067D01*
X11453171Y-25056543D01*
X11481743Y-25056543D01*
X11500790Y-25066067D01*
X11576981Y-25266067D02*
X11586505Y-25256543D01*
X11605552Y-25227971D01*
X11615076Y-25208924D01*
X11624600Y-25180352D01*
X11634124Y-25132733D01*
X11634124Y-25094638D01*
X11624600Y-25047019D01*
X11615076Y-25018448D01*
X11605552Y-24999400D01*
X11586505Y-24970828D01*
X11576981Y-24961305D01*
M02*
