%TF.GenerationSoftware,KiCad,Pcbnew,6.0.11+dfsg-1*%
%TF.CreationDate,2024-04-05T16:29:55+02:00*%
%TF.ProjectId,hexapad,68657861-7061-4642-9e6b-696361645f70,rev?*%
%TF.SameCoordinates,Original*%
%TF.FileFunction,Copper,L1,Top*%
%TF.FilePolarity,Positive*%
%FSLAX46Y46*%
G04 Gerber Fmt 4.6, Leading zero omitted, Abs format (unit mm)*
G04 Created by KiCad (PCBNEW 6.0.11+dfsg-1) date 2024-04-05 16:29:55*
%MOMM*%
%LPD*%
G01*
G04 APERTURE LIST*
%TA.AperFunction,SMDPad,CuDef*%
%ADD10R,0.500000X0.500000*%
%TD*%
%TA.AperFunction,ViaPad*%
%ADD11C,0.800000*%
%TD*%
%TA.AperFunction,Conductor*%
%ADD12C,0.250000*%
%TD*%
G04 APERTURE END LIST*
D10*
X173064500Y-52260000D03*
X172264500Y-52260000D03*
X171464500Y-52260000D03*
X170664500Y-52260000D03*
X169864500Y-52260000D03*
X169864500Y-51460000D03*
X169864500Y-50660000D03*
X170664500Y-50660000D03*
X171464500Y-50660000D03*
X172264500Y-50660000D03*
X173064500Y-50660000D03*
X173064500Y-51460000D03*
D11*
X160250000Y-47410000D03*
X172226500Y-53389500D03*
X133195510Y-40540490D03*
X130189510Y-43080490D03*
X170194500Y-54405500D03*
X159640000Y-45170000D03*
X143290000Y-56940000D03*
X167768000Y-52260000D03*
X171027000Y-45887000D03*
X167990000Y-46010000D03*
X162646000Y-46050000D03*
X155130000Y-36680000D03*
X156210000Y-39150000D03*
X120522228Y-148096649D03*
X143872228Y-139916649D03*
X135112228Y-80436649D03*
X135592228Y-64666649D03*
X205952228Y-89276649D03*
X206902228Y-147056649D03*
X204402228Y-208826649D03*
D12*
X160478500Y-50341500D02*
X161821500Y-50341500D01*
X161821500Y-50341500D02*
X167450000Y-50341500D01*
X133195510Y-40540490D02*
X132433510Y-40540490D01*
X170429000Y-51460000D02*
X170664500Y-51695500D01*
X172264500Y-51795500D02*
X172600000Y-51460000D01*
X170664500Y-51695500D02*
X170664500Y-52260000D01*
X169864500Y-51460000D02*
X170429000Y-51460000D01*
X170664500Y-53097500D02*
X170956500Y-53389500D01*
X172600000Y-51460000D02*
X173064500Y-51460000D01*
X170664500Y-52260000D02*
X170664500Y-53097500D01*
X132433510Y-40540490D02*
X131826000Y-41148000D01*
X168568500Y-51460000D02*
X169864500Y-51460000D01*
X160250000Y-50014000D02*
X160577500Y-50341500D01*
X131826000Y-41148000D02*
X131826000Y-55966000D01*
X160250000Y-47410000D02*
X160250000Y-50014000D01*
X167450000Y-50341500D02*
X168568500Y-51460000D01*
X133630000Y-57770000D02*
X156534000Y-57770000D01*
X160274000Y-54030000D02*
X160274000Y-50546000D01*
X170956500Y-53389500D02*
X172226500Y-53389500D01*
X131826000Y-55966000D02*
X133630000Y-57770000D01*
X160274000Y-50546000D02*
X160478500Y-50341500D01*
X156534000Y-57770000D02*
X160274000Y-54030000D01*
X172264500Y-52260000D02*
X172264500Y-51795500D01*
X171464500Y-52260000D02*
X172264500Y-52260000D01*
X170664500Y-52260000D02*
X171464500Y-52260000D01*
X160577500Y-50341500D02*
X161821500Y-50341500D01*
X173900000Y-52260000D02*
X174014500Y-52145500D01*
X158790000Y-58540000D02*
X162924500Y-54405500D01*
X174014500Y-50845500D02*
X174014500Y-52145500D01*
X131060000Y-58540000D02*
X158790000Y-58540000D01*
X174512500Y-53643500D02*
X174258500Y-53389500D01*
X170194500Y-55421500D02*
X170956500Y-56183500D01*
X173496500Y-53389500D02*
X173064500Y-52957500D01*
X174258500Y-53389500D02*
X173496500Y-53389500D01*
X173829000Y-50660000D02*
X174014500Y-50845500D01*
X174512500Y-55421500D02*
X174512500Y-53643500D01*
X173064500Y-52957500D02*
X173064500Y-52260000D01*
X169178500Y-54405500D02*
X170194500Y-54405500D01*
X130189510Y-43080490D02*
X129249510Y-43080490D01*
X170956500Y-56183500D02*
X173750500Y-56183500D01*
X128060000Y-55540000D02*
X131060000Y-58540000D01*
X162924500Y-54405500D02*
X169178500Y-54405500D01*
X129249510Y-43080490D02*
X128060000Y-44270000D01*
X128060000Y-44270000D02*
X128060000Y-55540000D01*
X170194500Y-54405500D02*
X170194500Y-55421500D01*
X173064500Y-50660000D02*
X173829000Y-50660000D01*
X173750500Y-56183500D02*
X174512500Y-55421500D01*
X173064500Y-52260000D02*
X173900000Y-52260000D01*
X157480000Y-54490000D02*
X157480000Y-46510000D01*
X143290000Y-56940000D02*
X155030000Y-56940000D01*
X155030000Y-56940000D02*
X157480000Y-54490000D01*
X159380000Y-45920000D02*
X159640000Y-45660000D01*
X159640000Y-45660000D02*
X159640000Y-45170000D01*
X157480000Y-46510000D02*
X158070000Y-45920000D01*
X158070000Y-45920000D02*
X159380000Y-45920000D01*
X167768000Y-52260000D02*
X169864500Y-52260000D01*
X172264500Y-46494500D02*
X172264500Y-50660000D01*
X171657000Y-45887000D02*
X172264500Y-46494500D01*
X171027000Y-45887000D02*
X171657000Y-45887000D01*
X171464500Y-49444500D02*
X171464500Y-50660000D01*
X170860000Y-48840000D02*
X171464500Y-49444500D01*
X167990000Y-46010000D02*
X167990000Y-47160000D01*
X167990000Y-47160000D02*
X169670000Y-48840000D01*
X169670000Y-48840000D02*
X170860000Y-48840000D01*
X169376500Y-49523500D02*
X169864500Y-50011500D01*
X162646000Y-46050000D02*
X162646000Y-48076000D01*
X162646000Y-48076000D02*
X164093500Y-49523500D01*
X164093500Y-49523500D02*
X169376500Y-49523500D01*
X169864500Y-50011500D02*
X169864500Y-50660000D01*
X155130000Y-38730000D02*
X155430000Y-39030000D01*
X155130000Y-36680000D02*
X155130000Y-38730000D01*
X156210000Y-39150000D02*
X156220000Y-39150000D01*
X155430000Y-39030000D02*
X155550000Y-39150000D01*
X155550000Y-39150000D02*
X156210000Y-39150000D01*
%TA.AperFunction,Conductor*%
G36*
X126700383Y-64264310D02*
G01*
X126738976Y-64305665D01*
X126743724Y-64313871D01*
X153483469Y-110536851D01*
X153500266Y-110605832D01*
X153483421Y-110663121D01*
X137203410Y-138756068D01*
X137156407Y-138837176D01*
X137104946Y-138886086D01*
X137047390Y-138900000D01*
X90620959Y-138900000D01*
X90552838Y-138879998D01*
X90506345Y-138826342D01*
X90496241Y-138756068D01*
X90507543Y-138719111D01*
X126516496Y-64313871D01*
X126564175Y-64261267D01*
X126632726Y-64242791D01*
X126700383Y-64264310D01*
G37*
%TD.AperFunction*%
%TA.AperFunction,Conductor*%
G36*
X187815511Y-111620002D02*
G01*
X187856407Y-111662824D01*
X204183389Y-139836824D01*
X204200239Y-139905792D01*
X204183389Y-139963176D01*
X187856407Y-168137176D01*
X187804946Y-168186086D01*
X187747390Y-168200000D01*
X155292482Y-168200000D01*
X155224361Y-168179998D01*
X155183562Y-168137344D01*
X150846741Y-160680129D01*
X138856708Y-140063119D01*
X138839752Y-139994178D01*
X138856514Y-139936768D01*
X155183625Y-111662991D01*
X155235012Y-111614002D01*
X155292739Y-111600000D01*
X187747390Y-111600000D01*
X187815511Y-111620002D01*
G37*
%TD.AperFunction*%
%TA.AperFunction,Conductor*%
G36*
X252487162Y-140920002D02*
G01*
X252533655Y-140973658D01*
X252543759Y-141043932D01*
X252532457Y-141080889D01*
X216523303Y-215486545D01*
X216475624Y-215539149D01*
X216407073Y-215557625D01*
X216339416Y-215536106D01*
X216300924Y-215494925D01*
X189456813Y-169263400D01*
X189439904Y-169194446D01*
X189456926Y-169136667D01*
X205836082Y-141043932D01*
X205883539Y-140962536D01*
X205935130Y-140913762D01*
X205992389Y-140900000D01*
X252419041Y-140900000D01*
X252487162Y-140920002D01*
G37*
%TD.AperFunction*%
%TA.AperFunction,Conductor*%
G36*
X273717108Y-37195009D02*
G01*
X273763607Y-37248659D01*
X273775000Y-37301015D01*
X273775000Y-241999000D01*
X273754998Y-242067121D01*
X273701342Y-242113614D01*
X273649000Y-242125000D01*
X68876000Y-242125000D01*
X68807879Y-242104998D01*
X68761386Y-242051342D01*
X68750000Y-241999000D01*
X68750000Y-239500000D01*
X69736835Y-239500000D01*
X69755465Y-239736711D01*
X69756619Y-239741518D01*
X69756620Y-239741524D01*
X69786601Y-239866401D01*
X69810895Y-239967594D01*
X69901760Y-240186963D01*
X69904346Y-240191183D01*
X70023241Y-240385202D01*
X70023245Y-240385208D01*
X70025824Y-240389416D01*
X70180031Y-240569969D01*
X70360584Y-240724176D01*
X70364792Y-240726755D01*
X70364798Y-240726759D01*
X70558817Y-240845654D01*
X70563037Y-240848240D01*
X70567607Y-240850133D01*
X70567611Y-240850135D01*
X70777833Y-240937211D01*
X70782406Y-240939105D01*
X70862609Y-240958360D01*
X71008476Y-240993380D01*
X71008482Y-240993381D01*
X71013289Y-240994535D01*
X71250000Y-241013165D01*
X71486711Y-240994535D01*
X71491518Y-240993381D01*
X71491524Y-240993380D01*
X71637391Y-240958360D01*
X71717594Y-240939105D01*
X71722167Y-240937211D01*
X71932389Y-240850135D01*
X71932393Y-240850133D01*
X71936963Y-240848240D01*
X71941183Y-240845654D01*
X72135202Y-240726759D01*
X72135208Y-240726755D01*
X72139416Y-240724176D01*
X72319969Y-240569969D01*
X72474176Y-240389416D01*
X72476755Y-240385208D01*
X72476759Y-240385202D01*
X72595654Y-240191183D01*
X72598240Y-240186963D01*
X72689105Y-239967594D01*
X72713399Y-239866401D01*
X72743380Y-239741524D01*
X72743381Y-239741518D01*
X72744535Y-239736711D01*
X72763165Y-239500000D01*
X169636835Y-239500000D01*
X169655465Y-239736711D01*
X169656619Y-239741518D01*
X169656620Y-239741524D01*
X169686601Y-239866401D01*
X169710895Y-239967594D01*
X169801760Y-240186963D01*
X169804346Y-240191183D01*
X169923241Y-240385202D01*
X169923245Y-240385208D01*
X169925824Y-240389416D01*
X170080031Y-240569969D01*
X170260584Y-240724176D01*
X170264792Y-240726755D01*
X170264798Y-240726759D01*
X170458817Y-240845654D01*
X170463037Y-240848240D01*
X170467607Y-240850133D01*
X170467611Y-240850135D01*
X170677833Y-240937211D01*
X170682406Y-240939105D01*
X170762609Y-240958360D01*
X170908476Y-240993380D01*
X170908482Y-240993381D01*
X170913289Y-240994535D01*
X171150000Y-241013165D01*
X171386711Y-240994535D01*
X171391518Y-240993381D01*
X171391524Y-240993380D01*
X171537391Y-240958360D01*
X171617594Y-240939105D01*
X171622167Y-240937211D01*
X171832389Y-240850135D01*
X171832393Y-240850133D01*
X171836963Y-240848240D01*
X171841183Y-240845654D01*
X172035202Y-240726759D01*
X172035208Y-240726755D01*
X172039416Y-240724176D01*
X172219969Y-240569969D01*
X172374176Y-240389416D01*
X172376755Y-240385208D01*
X172376759Y-240385202D01*
X172495654Y-240191183D01*
X172498240Y-240186963D01*
X172589105Y-239967594D01*
X172613399Y-239866401D01*
X172643380Y-239741524D01*
X172643381Y-239741518D01*
X172644535Y-239736711D01*
X172663165Y-239500000D01*
X269636835Y-239500000D01*
X269655465Y-239736711D01*
X269656619Y-239741518D01*
X269656620Y-239741524D01*
X269686601Y-239866401D01*
X269710895Y-239967594D01*
X269801760Y-240186963D01*
X269804346Y-240191183D01*
X269923241Y-240385202D01*
X269923245Y-240385208D01*
X269925824Y-240389416D01*
X270080031Y-240569969D01*
X270260584Y-240724176D01*
X270264792Y-240726755D01*
X270264798Y-240726759D01*
X270458817Y-240845654D01*
X270463037Y-240848240D01*
X270467607Y-240850133D01*
X270467611Y-240850135D01*
X270677833Y-240937211D01*
X270682406Y-240939105D01*
X270762609Y-240958360D01*
X270908476Y-240993380D01*
X270908482Y-240993381D01*
X270913289Y-240994535D01*
X271150000Y-241013165D01*
X271386711Y-240994535D01*
X271391518Y-240993381D01*
X271391524Y-240993380D01*
X271537391Y-240958360D01*
X271617594Y-240939105D01*
X271622167Y-240937211D01*
X271832389Y-240850135D01*
X271832393Y-240850133D01*
X271836963Y-240848240D01*
X271841183Y-240845654D01*
X272035202Y-240726759D01*
X272035208Y-240726755D01*
X272039416Y-240724176D01*
X272219969Y-240569969D01*
X272374176Y-240389416D01*
X272376755Y-240385208D01*
X272376759Y-240385202D01*
X272495654Y-240191183D01*
X272498240Y-240186963D01*
X272589105Y-239967594D01*
X272613399Y-239866401D01*
X272643380Y-239741524D01*
X272643381Y-239741518D01*
X272644535Y-239736711D01*
X272663165Y-239500000D01*
X272644535Y-239263289D01*
X272636581Y-239230155D01*
X272590260Y-239037218D01*
X272589105Y-239032406D01*
X272498240Y-238813037D01*
X272495654Y-238808817D01*
X272376759Y-238614798D01*
X272376755Y-238614792D01*
X272374176Y-238610584D01*
X272219969Y-238430031D01*
X272039416Y-238275824D01*
X272035208Y-238273245D01*
X272035202Y-238273241D01*
X271841183Y-238154346D01*
X271836963Y-238151760D01*
X271832393Y-238149867D01*
X271832389Y-238149865D01*
X271622167Y-238062789D01*
X271622165Y-238062788D01*
X271617594Y-238060895D01*
X271537391Y-238041640D01*
X271391524Y-238006620D01*
X271391518Y-238006619D01*
X271386711Y-238005465D01*
X271150000Y-237986835D01*
X270913289Y-238005465D01*
X270908482Y-238006619D01*
X270908476Y-238006620D01*
X270762609Y-238041640D01*
X270682406Y-238060895D01*
X270677835Y-238062788D01*
X270677833Y-238062789D01*
X270467611Y-238149865D01*
X270467607Y-238149867D01*
X270463037Y-238151760D01*
X270458817Y-238154346D01*
X270264798Y-238273241D01*
X270264792Y-238273245D01*
X270260584Y-238275824D01*
X270080031Y-238430031D01*
X269925824Y-238610584D01*
X269923245Y-238614792D01*
X269923241Y-238614798D01*
X269804346Y-238808817D01*
X269801760Y-238813037D01*
X269710895Y-239032406D01*
X269709740Y-239037218D01*
X269663420Y-239230155D01*
X269655465Y-239263289D01*
X269637308Y-239493995D01*
X269636835Y-239500000D01*
X172663165Y-239500000D01*
X172644535Y-239263289D01*
X172636581Y-239230155D01*
X172590260Y-239037218D01*
X172589105Y-239032406D01*
X172498240Y-238813037D01*
X172495654Y-238808817D01*
X172376759Y-238614798D01*
X172376755Y-238614792D01*
X172374176Y-238610584D01*
X172219969Y-238430031D01*
X172039416Y-238275824D01*
X172035208Y-238273245D01*
X172035202Y-238273241D01*
X171841183Y-238154346D01*
X171836963Y-238151760D01*
X171832393Y-238149867D01*
X171832389Y-238149865D01*
X171622167Y-238062789D01*
X171622165Y-238062788D01*
X171617594Y-238060895D01*
X171537391Y-238041640D01*
X171391524Y-238006620D01*
X171391518Y-238006619D01*
X171386711Y-238005465D01*
X171150000Y-237986835D01*
X170913289Y-238005465D01*
X170908482Y-238006619D01*
X170908476Y-238006620D01*
X170762609Y-238041640D01*
X170682406Y-238060895D01*
X170677835Y-238062788D01*
X170677833Y-238062789D01*
X170467611Y-238149865D01*
X170467607Y-238149867D01*
X170463037Y-238151760D01*
X170458817Y-238154346D01*
X170264798Y-238273241D01*
X170264792Y-238273245D01*
X170260584Y-238275824D01*
X170080031Y-238430031D01*
X169925824Y-238610584D01*
X169923245Y-238614792D01*
X169923241Y-238614798D01*
X169804346Y-238808817D01*
X169801760Y-238813037D01*
X169710895Y-239032406D01*
X169709740Y-239037218D01*
X169663420Y-239230155D01*
X169655465Y-239263289D01*
X169637308Y-239493995D01*
X169636835Y-239500000D01*
X72763165Y-239500000D01*
X72744535Y-239263289D01*
X72736581Y-239230155D01*
X72690260Y-239037218D01*
X72689105Y-239032406D01*
X72598240Y-238813037D01*
X72595654Y-238808817D01*
X72476759Y-238614798D01*
X72476755Y-238614792D01*
X72474176Y-238610584D01*
X72319969Y-238430031D01*
X72139416Y-238275824D01*
X72135208Y-238273245D01*
X72135202Y-238273241D01*
X71941183Y-238154346D01*
X71936963Y-238151760D01*
X71932393Y-238149867D01*
X71932389Y-238149865D01*
X71722167Y-238062789D01*
X71722165Y-238062788D01*
X71717594Y-238060895D01*
X71637391Y-238041640D01*
X71491524Y-238006620D01*
X71491518Y-238006619D01*
X71486711Y-238005465D01*
X71250000Y-237986835D01*
X71013289Y-238005465D01*
X71008482Y-238006619D01*
X71008476Y-238006620D01*
X70862609Y-238041640D01*
X70782406Y-238060895D01*
X70777835Y-238062788D01*
X70777833Y-238062789D01*
X70567611Y-238149865D01*
X70567607Y-238149867D01*
X70563037Y-238151760D01*
X70558817Y-238154346D01*
X70364798Y-238273241D01*
X70364792Y-238273245D01*
X70360584Y-238275824D01*
X70180031Y-238430031D01*
X70025824Y-238610584D01*
X70023245Y-238614792D01*
X70023241Y-238614798D01*
X69904346Y-238808817D01*
X69901760Y-238813037D01*
X69810895Y-239032406D01*
X69809740Y-239037218D01*
X69763420Y-239230155D01*
X69755465Y-239263289D01*
X69737308Y-239493995D01*
X69736835Y-239500000D01*
X68750000Y-239500000D01*
X68750000Y-234515679D01*
X75770018Y-234515679D01*
X75772484Y-234524309D01*
X75772485Y-234524317D01*
X75778099Y-234543964D01*
X75781686Y-234560789D01*
X75785839Y-234589911D01*
X75796522Y-234613441D01*
X75802941Y-234630907D01*
X75803234Y-234631931D01*
X75805791Y-234640880D01*
X75810034Y-234655732D01*
X75822024Y-234674738D01*
X75825726Y-234680607D01*
X75833886Y-234695742D01*
X75842342Y-234714366D01*
X75846053Y-234722540D01*
X75851907Y-234729341D01*
X75851909Y-234729345D01*
X75862902Y-234742118D01*
X75873968Y-234757083D01*
X75882959Y-234771336D01*
X75882963Y-234771341D01*
X75887748Y-234778926D01*
X75894470Y-234784864D01*
X75894472Y-234784866D01*
X75899040Y-234788901D01*
X75904330Y-234793573D01*
X75909800Y-234798405D01*
X75921879Y-234810641D01*
X75941070Y-234832938D01*
X75948595Y-234837822D01*
X75948598Y-234837824D01*
X75953838Y-234841224D01*
X75961218Y-234846013D01*
X75962734Y-234846997D01*
X75977558Y-234858256D01*
X75996915Y-234875355D01*
X76013606Y-234883193D01*
X76023546Y-234887861D01*
X76038576Y-234896216D01*
X76063254Y-234912231D01*
X76071850Y-234914807D01*
X76087996Y-234919646D01*
X76105383Y-234926292D01*
X76128759Y-234937269D01*
X76137630Y-234938651D01*
X76137633Y-234938652D01*
X76157830Y-234941798D01*
X76174597Y-234945597D01*
X76202782Y-234954043D01*
X76211755Y-234954103D01*
X76212859Y-234954110D01*
X76237253Y-234954273D01*
X76238147Y-234954311D01*
X76239344Y-234954497D01*
X76267838Y-234954500D01*
X76270825Y-234954500D01*
X76271653Y-234954503D01*
X76344231Y-234954987D01*
X76344232Y-234954987D01*
X76348436Y-234955015D01*
X76349879Y-234954603D01*
X76351312Y-234954506D01*
X110785766Y-234957355D01*
X124616266Y-234958499D01*
X124617026Y-234958501D01*
X124632774Y-234958597D01*
X124694721Y-234958976D01*
X124723130Y-234950857D01*
X124739893Y-234947279D01*
X124760259Y-234944364D01*
X124769146Y-234943092D01*
X124792552Y-234932452D01*
X124810055Y-234926013D01*
X124834771Y-234918949D01*
X124842368Y-234914156D01*
X124859754Y-234903186D01*
X124874844Y-234895045D01*
X124893575Y-234886530D01*
X124893578Y-234886528D01*
X124901746Y-234882815D01*
X124908542Y-234876960D01*
X124908544Y-234876959D01*
X124921220Y-234866038D01*
X124936219Y-234854941D01*
X124957958Y-234841224D01*
X124967600Y-234830307D01*
X124977513Y-234819082D01*
X124989716Y-234807029D01*
X125005296Y-234793607D01*
X125005300Y-234793602D01*
X125012099Y-234787745D01*
X125016979Y-234780217D01*
X125016982Y-234780214D01*
X125026080Y-234766179D01*
X125037367Y-234751310D01*
X125038355Y-234750192D01*
X125054378Y-234732049D01*
X125066933Y-234705308D01*
X125075259Y-234690321D01*
X125086451Y-234673057D01*
X125086453Y-234673054D01*
X125091334Y-234665524D01*
X125093918Y-234656887D01*
X125098704Y-234640892D01*
X125105360Y-234623463D01*
X125112466Y-234608326D01*
X125112467Y-234608324D01*
X125116281Y-234600200D01*
X125120826Y-234571011D01*
X125124609Y-234554291D01*
X125133080Y-234525976D01*
X125133293Y-234491525D01*
X125133327Y-234490727D01*
X125133500Y-234489614D01*
X125133500Y-234458611D01*
X125133502Y-234457831D01*
X125133957Y-234384304D01*
X125133982Y-234380321D01*
X125133593Y-234378959D01*
X125133500Y-234377595D01*
X125133500Y-220201000D01*
X125153502Y-220132879D01*
X125207158Y-220086386D01*
X125259500Y-220075000D01*
X134123500Y-220075000D01*
X134191621Y-220095002D01*
X134238114Y-220148658D01*
X134249500Y-220201000D01*
X134249500Y-234441377D01*
X134249498Y-234442147D01*
X134249024Y-234519721D01*
X134251491Y-234528352D01*
X134257150Y-234548153D01*
X134260728Y-234564915D01*
X134264920Y-234594187D01*
X134268634Y-234602355D01*
X134268634Y-234602356D01*
X134275548Y-234617562D01*
X134281996Y-234635086D01*
X134289051Y-234659771D01*
X134293843Y-234667365D01*
X134293844Y-234667368D01*
X134304830Y-234684780D01*
X134312969Y-234699863D01*
X134325208Y-234726782D01*
X134331069Y-234733584D01*
X134333309Y-234736184D01*
X134338423Y-234742118D01*
X134341970Y-234746235D01*
X134353073Y-234761239D01*
X134366776Y-234782958D01*
X134373501Y-234788897D01*
X134373504Y-234788901D01*
X134388938Y-234802532D01*
X134400982Y-234814724D01*
X134414427Y-234830327D01*
X134414430Y-234830329D01*
X134420287Y-234837127D01*
X134427816Y-234842007D01*
X134427817Y-234842008D01*
X134441835Y-234851094D01*
X134456709Y-234862385D01*
X134465937Y-234870534D01*
X134475951Y-234879378D01*
X134502711Y-234891942D01*
X134517691Y-234900263D01*
X134534983Y-234911471D01*
X134534988Y-234911473D01*
X134542515Y-234916352D01*
X134551108Y-234918922D01*
X134551113Y-234918924D01*
X134567120Y-234923711D01*
X134584564Y-234930372D01*
X134599676Y-234937467D01*
X134599678Y-234937468D01*
X134607800Y-234941281D01*
X134616667Y-234942662D01*
X134616668Y-234942662D01*
X134626310Y-234944163D01*
X134637017Y-234945830D01*
X134653732Y-234949613D01*
X134673466Y-234955515D01*
X134673472Y-234955516D01*
X134682066Y-234958086D01*
X134691037Y-234958141D01*
X134691038Y-234958141D01*
X134701097Y-234958202D01*
X134716506Y-234958296D01*
X134717289Y-234958329D01*
X134718386Y-234958500D01*
X134749377Y-234958500D01*
X134750147Y-234958502D01*
X134823785Y-234958952D01*
X134823786Y-234958952D01*
X134827721Y-234958976D01*
X134829065Y-234958592D01*
X134830410Y-234958500D01*
X207641377Y-234958500D01*
X207642148Y-234958502D01*
X207719721Y-234958976D01*
X207742502Y-234952465D01*
X207748153Y-234950850D01*
X207764915Y-234947272D01*
X207767631Y-234946883D01*
X207794187Y-234943080D01*
X207817564Y-234932451D01*
X207835087Y-234926004D01*
X207859771Y-234918949D01*
X207867365Y-234914157D01*
X207867368Y-234914156D01*
X207884780Y-234903170D01*
X207899865Y-234895030D01*
X207926782Y-234882792D01*
X207946235Y-234866030D01*
X207961239Y-234854927D01*
X207982958Y-234841224D01*
X207988897Y-234834499D01*
X207988901Y-234834496D01*
X208002532Y-234819062D01*
X208014724Y-234807018D01*
X208030327Y-234793573D01*
X208030329Y-234793570D01*
X208037127Y-234787713D01*
X208051094Y-234766165D01*
X208062385Y-234751291D01*
X208073431Y-234738783D01*
X208073432Y-234738782D01*
X208079378Y-234732049D01*
X208091943Y-234705287D01*
X208100263Y-234690309D01*
X208111471Y-234673017D01*
X208111473Y-234673012D01*
X208116352Y-234665485D01*
X208118922Y-234656892D01*
X208118924Y-234656887D01*
X208123711Y-234640880D01*
X208130372Y-234623436D01*
X208137467Y-234608324D01*
X208137468Y-234608322D01*
X208141281Y-234600200D01*
X208145830Y-234570983D01*
X208149613Y-234554268D01*
X208155515Y-234534534D01*
X208155516Y-234534528D01*
X208158086Y-234525934D01*
X208158296Y-234491494D01*
X208158329Y-234490711D01*
X208158500Y-234489614D01*
X208158500Y-234458611D01*
X208158502Y-234457853D01*
X208158952Y-234384215D01*
X208158952Y-234384214D01*
X208158976Y-234380279D01*
X208158592Y-234378935D01*
X208158500Y-234377590D01*
X208158500Y-220201000D01*
X208178502Y-220132879D01*
X208232158Y-220086386D01*
X208284500Y-220075000D01*
X217090500Y-220075000D01*
X217158621Y-220095002D01*
X217205114Y-220148658D01*
X217216500Y-220201000D01*
X217216500Y-234416799D01*
X217216497Y-234417622D01*
X217215994Y-234494500D01*
X217218458Y-234503135D01*
X217218458Y-234503136D01*
X217224145Y-234523067D01*
X217227708Y-234539776D01*
X217231920Y-234569187D01*
X217235638Y-234577364D01*
X217242490Y-234592433D01*
X217248952Y-234610006D01*
X217255960Y-234634567D01*
X217260745Y-234642158D01*
X217271802Y-234659699D01*
X217279912Y-234674738D01*
X217288439Y-234693492D01*
X217292208Y-234701782D01*
X217298065Y-234708580D01*
X217298066Y-234708581D01*
X217308874Y-234721124D01*
X217320012Y-234736184D01*
X217328842Y-234750192D01*
X217328845Y-234750196D01*
X217333631Y-234757788D01*
X217355895Y-234777468D01*
X217367897Y-234789624D01*
X217387287Y-234812127D01*
X217394822Y-234817011D01*
X217408715Y-234826016D01*
X217423632Y-234837343D01*
X217442765Y-234854256D01*
X217450888Y-234858074D01*
X217450894Y-234858078D01*
X217469649Y-234866893D01*
X217484581Y-234875190D01*
X217509515Y-234891352D01*
X217518113Y-234893923D01*
X217518121Y-234893927D01*
X217533989Y-234898672D01*
X217551483Y-234905356D01*
X217574587Y-234916216D01*
X217583457Y-234917601D01*
X217603939Y-234920799D01*
X217620603Y-234924573D01*
X217649066Y-234933086D01*
X217658040Y-234933141D01*
X217658042Y-234933141D01*
X217683454Y-234933296D01*
X217684158Y-234933326D01*
X217685165Y-234933483D01*
X217701280Y-234933490D01*
X217715826Y-234933496D01*
X217716543Y-234933498D01*
X217739988Y-234933641D01*
X217794721Y-234933976D01*
X217795979Y-234933616D01*
X217797228Y-234933531D01*
X254300127Y-234949379D01*
X266086330Y-234954496D01*
X266086975Y-234954498D01*
X266124691Y-234954707D01*
X266166006Y-234954937D01*
X266174635Y-234952465D01*
X266174639Y-234952465D01*
X266194129Y-234946883D01*
X266211011Y-234943278D01*
X266231085Y-234940412D01*
X266239973Y-234939143D01*
X266251351Y-234933976D01*
X266263639Y-234928395D01*
X266281048Y-234921988D01*
X266289225Y-234919646D01*
X266306033Y-234914832D01*
X266330771Y-234899204D01*
X266345957Y-234891010D01*
X266364418Y-234882626D01*
X266364420Y-234882625D01*
X266372595Y-234878912D01*
X266392292Y-234861955D01*
X266407201Y-234850921D01*
X266421593Y-234841829D01*
X266429177Y-234837038D01*
X266435115Y-234830307D01*
X266448530Y-234815101D01*
X266460812Y-234802966D01*
X266461317Y-234802532D01*
X266482981Y-234783881D01*
X266487865Y-234776354D01*
X266487867Y-234776351D01*
X266497130Y-234762074D01*
X266508342Y-234747301D01*
X266519598Y-234734542D01*
X266519603Y-234734535D01*
X266525536Y-234727809D01*
X266537950Y-234701329D01*
X266546333Y-234686234D01*
X266549984Y-234680607D01*
X266562259Y-234661687D01*
X266564835Y-234653088D01*
X266564836Y-234653085D01*
X266569717Y-234636788D01*
X266576334Y-234619454D01*
X266583556Y-234604049D01*
X266587365Y-234595925D01*
X266591849Y-234567019D01*
X266595657Y-234550185D01*
X266604053Y-234522155D01*
X266604178Y-234503136D01*
X266604279Y-234487632D01*
X266604321Y-234486622D01*
X266604522Y-234485329D01*
X266604504Y-234453633D01*
X266604507Y-234452793D01*
X266604614Y-234436563D01*
X266604956Y-234384304D01*
X266604978Y-234380999D01*
X266604978Y-234380993D01*
X266605007Y-234376500D01*
X266604564Y-234374949D01*
X266604459Y-234373407D01*
X266604218Y-233941500D01*
X266554504Y-145107935D01*
X266554506Y-145107184D01*
X266554921Y-145039254D01*
X266554976Y-145030279D01*
X266546802Y-145001679D01*
X266543234Y-144984986D01*
X266540278Y-144964429D01*
X266540277Y-144964425D01*
X266538999Y-144955537D01*
X266535278Y-144947364D01*
X266528433Y-144932331D01*
X266521958Y-144914748D01*
X266517418Y-144898864D01*
X266517415Y-144898858D01*
X266514949Y-144890229D01*
X266499073Y-144865066D01*
X266490970Y-144850058D01*
X266482357Y-144831144D01*
X266482355Y-144831141D01*
X266478637Y-144822976D01*
X266461976Y-144803661D01*
X266450834Y-144788612D01*
X266437224Y-144767042D01*
X266414918Y-144747342D01*
X266402933Y-144735216D01*
X266383496Y-144712684D01*
X266362087Y-144698824D01*
X266347163Y-144687502D01*
X266334778Y-144676564D01*
X266334775Y-144676562D01*
X266328049Y-144670622D01*
X266301121Y-144657980D01*
X266286203Y-144649698D01*
X266268759Y-144638405D01*
X266261224Y-144633527D01*
X266236788Y-144626234D01*
X266219271Y-144619551D01*
X266204324Y-144612533D01*
X266204322Y-144612533D01*
X266196200Y-144608719D01*
X266187333Y-144607338D01*
X266187332Y-144607338D01*
X266166806Y-144604142D01*
X266150158Y-144600380D01*
X266146010Y-144599142D01*
X266121650Y-144591872D01*
X266112679Y-144591822D01*
X266112678Y-144591822D01*
X266099263Y-144591748D01*
X266087276Y-144591681D01*
X266086595Y-144591653D01*
X266085614Y-144591500D01*
X266055013Y-144591500D01*
X266054313Y-144591498D01*
X265979621Y-144591083D01*
X265979619Y-144591083D01*
X265975994Y-144591063D01*
X265974762Y-144591416D01*
X265973531Y-144591500D01*
X254304544Y-144591500D01*
X254236423Y-144571498D01*
X254189930Y-144517842D01*
X254179826Y-144447568D01*
X254191053Y-144410766D01*
X256342374Y-139950000D01*
X269636835Y-139950000D01*
X269637223Y-139954930D01*
X269637223Y-139954933D01*
X269637780Y-139962008D01*
X269655465Y-140186711D01*
X269656619Y-140191518D01*
X269656620Y-140191524D01*
X269685732Y-140312782D01*
X269710895Y-140417594D01*
X269712788Y-140422165D01*
X269712789Y-140422167D01*
X269784592Y-140595515D01*
X269801760Y-140636963D01*
X269804346Y-140641183D01*
X269923241Y-140835202D01*
X269923245Y-140835208D01*
X269925824Y-140839416D01*
X270080031Y-141019969D01*
X270260584Y-141174176D01*
X270264792Y-141176755D01*
X270264798Y-141176759D01*
X270445039Y-141287211D01*
X270463037Y-141298240D01*
X270467607Y-141300133D01*
X270467611Y-141300135D01*
X270677833Y-141387211D01*
X270682406Y-141389105D01*
X270762609Y-141408360D01*
X270908476Y-141443380D01*
X270908482Y-141443381D01*
X270913289Y-141444535D01*
X271150000Y-141463165D01*
X271386711Y-141444535D01*
X271391518Y-141443381D01*
X271391524Y-141443380D01*
X271537391Y-141408360D01*
X271617594Y-141389105D01*
X271622167Y-141387211D01*
X271832389Y-141300135D01*
X271832393Y-141300133D01*
X271836963Y-141298240D01*
X271854961Y-141287211D01*
X272035202Y-141176759D01*
X272035208Y-141176755D01*
X272039416Y-141174176D01*
X272219969Y-141019969D01*
X272374176Y-140839416D01*
X272376755Y-140835208D01*
X272376759Y-140835202D01*
X272495654Y-140641183D01*
X272498240Y-140636963D01*
X272515409Y-140595515D01*
X272587211Y-140422167D01*
X272587212Y-140422165D01*
X272589105Y-140417594D01*
X272614268Y-140312782D01*
X272643380Y-140191524D01*
X272643381Y-140191518D01*
X272644535Y-140186711D01*
X272663165Y-139950000D01*
X272644535Y-139713289D01*
X272636581Y-139680155D01*
X272590260Y-139487218D01*
X272589105Y-139482406D01*
X272570831Y-139438289D01*
X272500135Y-139267611D01*
X272500133Y-139267607D01*
X272498240Y-139263037D01*
X272413976Y-139125531D01*
X272376759Y-139064798D01*
X272376755Y-139064792D01*
X272374176Y-139060584D01*
X272219969Y-138880031D01*
X272039416Y-138725824D01*
X272035208Y-138723245D01*
X272035202Y-138723241D01*
X271841183Y-138604346D01*
X271836963Y-138601760D01*
X271832393Y-138599867D01*
X271832389Y-138599865D01*
X271622167Y-138512789D01*
X271622165Y-138512788D01*
X271617594Y-138510895D01*
X271537391Y-138491640D01*
X271391524Y-138456620D01*
X271391518Y-138456619D01*
X271386711Y-138455465D01*
X271150000Y-138436835D01*
X270913289Y-138455465D01*
X270908482Y-138456619D01*
X270908476Y-138456620D01*
X270762609Y-138491640D01*
X270682406Y-138510895D01*
X270677835Y-138512788D01*
X270677833Y-138512789D01*
X270467611Y-138599865D01*
X270467607Y-138599867D01*
X270463037Y-138601760D01*
X270458817Y-138604346D01*
X270264798Y-138723241D01*
X270264792Y-138723245D01*
X270260584Y-138725824D01*
X270080031Y-138880031D01*
X269925824Y-139060584D01*
X269923245Y-139064792D01*
X269923241Y-139064798D01*
X269886024Y-139125531D01*
X269801760Y-139263037D01*
X269799867Y-139267607D01*
X269799865Y-139267611D01*
X269729169Y-139438289D01*
X269710895Y-139482406D01*
X269709740Y-139487218D01*
X269663420Y-139680155D01*
X269655465Y-139713289D01*
X269637308Y-139943995D01*
X269636835Y-139950000D01*
X256342374Y-139950000D01*
X256467131Y-139691317D01*
X256467131Y-139691316D01*
X256475000Y-139675000D01*
X254418850Y-135544446D01*
X254406399Y-135474551D01*
X254433714Y-135409019D01*
X254492122Y-135368658D01*
X254531602Y-135362299D01*
X266087797Y-135358446D01*
X266088598Y-135358449D01*
X266165018Y-135358958D01*
X266193734Y-135350768D01*
X266210365Y-135347219D01*
X266239931Y-135342975D01*
X266248102Y-135339257D01*
X266248104Y-135339256D01*
X266263048Y-135332455D01*
X266280680Y-135325970D01*
X266290518Y-135323164D01*
X266305090Y-135319008D01*
X266312679Y-135314226D01*
X266312685Y-135314223D01*
X266330342Y-135303096D01*
X266345324Y-135295014D01*
X266364333Y-135286363D01*
X266364336Y-135286361D01*
X266372506Y-135282643D01*
X266391742Y-135266057D01*
X266406839Y-135254889D01*
X266420724Y-135246139D01*
X266420725Y-135246138D01*
X266428320Y-135241352D01*
X266448090Y-135218991D01*
X266460206Y-135207025D01*
X266476020Y-135193390D01*
X266476023Y-135193387D01*
X266482819Y-135187527D01*
X266487697Y-135179995D01*
X266487701Y-135179991D01*
X266496626Y-135166211D01*
X266507983Y-135151251D01*
X266518855Y-135138955D01*
X266518857Y-135138951D01*
X266524800Y-135132230D01*
X266528618Y-135124109D01*
X266528621Y-135124105D01*
X266537501Y-135105218D01*
X266545771Y-135090333D01*
X266557121Y-135072810D01*
X266557122Y-135072808D01*
X266562003Y-135065272D01*
X266569272Y-135040935D01*
X266575975Y-135023389D01*
X266582959Y-135008536D01*
X266586777Y-135000416D01*
X266591385Y-134970926D01*
X266595145Y-134954318D01*
X266601122Y-134934308D01*
X266603691Y-134925708D01*
X266603889Y-134891352D01*
X266603914Y-134890751D01*
X266604057Y-134889839D01*
X266604074Y-134859736D01*
X266604076Y-134859080D01*
X266604512Y-134783491D01*
X266604532Y-134780052D01*
X266604199Y-134778886D01*
X266604119Y-134777718D01*
X266604362Y-134341613D01*
X266633838Y-81227767D01*
X266654039Y-44828879D01*
X266654110Y-44827909D01*
X266654082Y-44827909D01*
X266654240Y-44801843D01*
X266654336Y-44785907D01*
X266655023Y-44773523D01*
X266655060Y-44773175D01*
X266655060Y-44773174D01*
X266655528Y-44768713D01*
X266655359Y-44764231D01*
X266655359Y-44764223D01*
X266654697Y-44746697D01*
X266654609Y-44741181D01*
X266654912Y-44691230D01*
X266654912Y-44691227D01*
X266654966Y-44682253D01*
X266652533Y-44673741D01*
X266652414Y-44672379D01*
X266652064Y-44670187D01*
X266651756Y-44668865D01*
X266651422Y-44660018D01*
X266645109Y-44641110D01*
X266644841Y-44640307D01*
X266641343Y-44625499D01*
X266640007Y-44620922D01*
X266638739Y-44612030D01*
X266632206Y-44597640D01*
X266625795Y-44580201D01*
X266614933Y-44542205D01*
X266610209Y-44534719D01*
X266609712Y-44533442D01*
X266608766Y-44531447D01*
X266608097Y-44530261D01*
X266605291Y-44521858D01*
X266590139Y-44500028D01*
X266587287Y-44495003D01*
X266587070Y-44495141D01*
X266582235Y-44487572D01*
X266578525Y-44479401D01*
X266572531Y-44472437D01*
X266561483Y-44457499D01*
X266537203Y-44419021D01*
X266530566Y-44413159D01*
X266529728Y-44412071D01*
X266528270Y-44410432D01*
X266527288Y-44409475D01*
X266522238Y-44402199D01*
X266488885Y-44375251D01*
X266489565Y-44374410D01*
X266487045Y-44373113D01*
X266483507Y-44369003D01*
X266475981Y-44364119D01*
X266471864Y-44360523D01*
X266465421Y-44355630D01*
X266428024Y-44322605D01*
X266420015Y-44318845D01*
X266418907Y-44318037D01*
X266417033Y-44316864D01*
X266415825Y-44316223D01*
X266408939Y-44310659D01*
X266366032Y-44292767D01*
X266366286Y-44292157D01*
X266364547Y-44291804D01*
X266361323Y-44289711D01*
X266352730Y-44287136D01*
X266344580Y-44283364D01*
X266344588Y-44283347D01*
X266343570Y-44282958D01*
X266327146Y-44275248D01*
X266296173Y-44260708D01*
X266287428Y-44259347D01*
X266286134Y-44258881D01*
X266284032Y-44258288D01*
X266282680Y-44258009D01*
X266274502Y-44254599D01*
X266226286Y-44249245D01*
X266226345Y-44248717D01*
X266224925Y-44248837D01*
X266221795Y-44247899D01*
X266213680Y-44247845D01*
X266213496Y-44247825D01*
X266213214Y-44247694D01*
X266213199Y-44247792D01*
X266190393Y-44244241D01*
X266190388Y-44244241D01*
X266185586Y-44243493D01*
X266180720Y-44243493D01*
X266178858Y-44243349D01*
X266167559Y-44242723D01*
X266129734Y-44238523D01*
X266120894Y-44240076D01*
X266120888Y-44240076D01*
X266112235Y-44241596D01*
X266090443Y-44243496D01*
X219148987Y-44245414D01*
X217182579Y-44245494D01*
X217181610Y-44245490D01*
X217178497Y-44245466D01*
X217115082Y-44244975D01*
X217115079Y-44244975D01*
X217106103Y-44244906D01*
X217077145Y-44253132D01*
X217060588Y-44256652D01*
X217039670Y-44259648D01*
X217039667Y-44259649D01*
X217030786Y-44260921D01*
X217014529Y-44268314D01*
X217007901Y-44271327D01*
X216990175Y-44277833D01*
X216974626Y-44282250D01*
X216974624Y-44282251D01*
X216965987Y-44284704D01*
X216941921Y-44299834D01*
X216940505Y-44300724D01*
X216925600Y-44308751D01*
X216898193Y-44321214D01*
X216879143Y-44337630D01*
X216863961Y-44348846D01*
X216842674Y-44362228D01*
X216836721Y-44368946D01*
X216836719Y-44368948D01*
X216822710Y-44384758D01*
X216810659Y-44396644D01*
X216796053Y-44409231D01*
X216787852Y-44416298D01*
X216782972Y-44423828D01*
X216782969Y-44423831D01*
X216774177Y-44437397D01*
X216762748Y-44452430D01*
X216746076Y-44471245D01*
X216737582Y-44489260D01*
X216733240Y-44498469D01*
X216725009Y-44513259D01*
X216713513Y-44530997D01*
X216713511Y-44531000D01*
X216708632Y-44538529D01*
X216706061Y-44547127D01*
X216701428Y-44562621D01*
X216694676Y-44580260D01*
X216683958Y-44602993D01*
X216682563Y-44611858D01*
X216679278Y-44632730D01*
X216675529Y-44649236D01*
X216666904Y-44678082D01*
X216666850Y-44687055D01*
X216666849Y-44687059D01*
X216666696Y-44712339D01*
X216666677Y-44712798D01*
X216666558Y-44713551D01*
X216666510Y-44743013D01*
X216666020Y-44823737D01*
X216666307Y-44824740D01*
X216666375Y-44825749D01*
X216642961Y-59175453D01*
X216641196Y-60256986D01*
X216640872Y-60262262D01*
X216639601Y-60266980D01*
X216639793Y-60275957D01*
X216641036Y-60334232D01*
X216641065Y-60337129D01*
X216641045Y-60349209D01*
X216620930Y-60417296D01*
X216567197Y-60463700D01*
X216515045Y-60475000D01*
X125934292Y-60475000D01*
X125866171Y-60454998D01*
X125819678Y-60401342D01*
X125808292Y-60349206D01*
X125808173Y-60275957D01*
X125792575Y-50716633D01*
X125783098Y-44908842D01*
X125783100Y-44907861D01*
X125783510Y-44841263D01*
X125783510Y-44841261D01*
X125783565Y-44832288D01*
X125781100Y-44823660D01*
X125781099Y-44823656D01*
X125775294Y-44803344D01*
X125771746Y-44786788D01*
X125768717Y-44765878D01*
X125768716Y-44765876D01*
X125767430Y-44756997D01*
X125763703Y-44748836D01*
X125763702Y-44748832D01*
X125756987Y-44734128D01*
X125750450Y-44716405D01*
X125749635Y-44713551D01*
X125743544Y-44692236D01*
X125738754Y-44684644D01*
X125738753Y-44684641D01*
X125727481Y-44666775D01*
X125719431Y-44651884D01*
X125718222Y-44649237D01*
X125706926Y-44624500D01*
X125690481Y-44605477D01*
X125679239Y-44590309D01*
X125670614Y-44576639D01*
X125665824Y-44569046D01*
X125659097Y-44563105D01*
X125659094Y-44563101D01*
X125643262Y-44549118D01*
X125631352Y-44537081D01*
X125617536Y-44521099D01*
X125611667Y-44514310D01*
X125604131Y-44509443D01*
X125604128Y-44509440D01*
X125590539Y-44500664D01*
X125575490Y-44489260D01*
X125564327Y-44479401D01*
X125556652Y-44472622D01*
X125529402Y-44459827D01*
X125514603Y-44451621D01*
X125496853Y-44440156D01*
X125496849Y-44440154D01*
X125489310Y-44435285D01*
X125465202Y-44428118D01*
X125447558Y-44421396D01*
X125432931Y-44414528D01*
X125432930Y-44414528D01*
X125424806Y-44410713D01*
X125415137Y-44409207D01*
X125395060Y-44406080D01*
X125378550Y-44402358D01*
X125371216Y-44400178D01*
X125349691Y-44393779D01*
X125315409Y-44393625D01*
X125314975Y-44393608D01*
X125314221Y-44393490D01*
X125289037Y-44393489D01*
X125285302Y-44393489D01*
X125284741Y-44393488D01*
X125207027Y-44393139D01*
X125207021Y-44393139D01*
X125204035Y-44393126D01*
X125203030Y-44393415D01*
X125202010Y-44393485D01*
X122180761Y-44393362D01*
X76363030Y-44391490D01*
X76339726Y-44389315D01*
X76338138Y-44389016D01*
X76326117Y-44386753D01*
X76286410Y-44390672D01*
X76284317Y-44390878D01*
X76271943Y-44391487D01*
X76267094Y-44391487D01*
X76262654Y-44392123D01*
X76262649Y-44392123D01*
X76242556Y-44395000D01*
X76242549Y-44394951D01*
X76242367Y-44395019D01*
X76242109Y-44395044D01*
X76233997Y-44394999D01*
X76231276Y-44395778D01*
X76229414Y-44395499D01*
X76229492Y-44396289D01*
X76181163Y-44401059D01*
X76172955Y-44404365D01*
X76171624Y-44404623D01*
X76169468Y-44405202D01*
X76168184Y-44405647D01*
X76159419Y-44406902D01*
X76111697Y-44428598D01*
X76110786Y-44428934D01*
X76110797Y-44428958D01*
X76102599Y-44432631D01*
X76093969Y-44435103D01*
X76091098Y-44436917D01*
X76088941Y-44437211D01*
X76089284Y-44438063D01*
X76054376Y-44452121D01*
X76054372Y-44452123D01*
X76046052Y-44455474D01*
X76039097Y-44460954D01*
X76037874Y-44461584D01*
X76036004Y-44462723D01*
X76034883Y-44463520D01*
X76026822Y-44467185D01*
X75999025Y-44491134D01*
X75988912Y-44499847D01*
X75982743Y-44504415D01*
X75978419Y-44508099D01*
X75970825Y-44512897D01*
X75967449Y-44516725D01*
X75964676Y-44517963D01*
X75965469Y-44518969D01*
X75931642Y-44545622D01*
X75926505Y-44552833D01*
X75925511Y-44553779D01*
X75924031Y-44555403D01*
X75923182Y-44556479D01*
X75916473Y-44562259D01*
X75891606Y-44600621D01*
X75880443Y-44615335D01*
X75880404Y-44615394D01*
X75874466Y-44622125D01*
X75870656Y-44630252D01*
X75865731Y-44637758D01*
X75865500Y-44637607D01*
X75862692Y-44642415D01*
X75847134Y-44664257D01*
X75844227Y-44672623D01*
X75843541Y-44673804D01*
X75842569Y-44675792D01*
X75842060Y-44677054D01*
X75837243Y-44684484D01*
X75834669Y-44693088D01*
X75834669Y-44693089D01*
X75825835Y-44722621D01*
X75819208Y-44739991D01*
X75812636Y-44754009D01*
X75811260Y-44762878D01*
X75809746Y-44767839D01*
X75806225Y-44781970D01*
X75799319Y-44801843D01*
X75798876Y-44810687D01*
X75798549Y-44812016D01*
X75798176Y-44814185D01*
X75798040Y-44815549D01*
X75795503Y-44824033D01*
X75795448Y-44833005D01*
X75795141Y-44882957D01*
X75794986Y-44888480D01*
X75793728Y-44913622D01*
X75794236Y-44918463D01*
X75794288Y-44920384D01*
X75794841Y-44931618D01*
X75794607Y-44969688D01*
X75795297Y-44972103D01*
X75795539Y-44975638D01*
X75820502Y-89955515D01*
X75845481Y-134962493D01*
X75845496Y-134990307D01*
X75845493Y-134991120D01*
X75845001Y-135067487D01*
X75853198Y-135096204D01*
X75856748Y-135112828D01*
X75861000Y-135142397D01*
X75871524Y-135165510D01*
X75878012Y-135183135D01*
X75884981Y-135207551D01*
X75889767Y-135215142D01*
X75889768Y-135215144D01*
X75892196Y-135218994D01*
X75900905Y-135232808D01*
X75908987Y-135247781D01*
X75921362Y-135274958D01*
X75937951Y-135294189D01*
X75949121Y-135309283D01*
X75957873Y-135323164D01*
X75962665Y-135330764D01*
X75969391Y-135336708D01*
X75969396Y-135336714D01*
X75985037Y-135350536D01*
X75997007Y-135362650D01*
X76010640Y-135378455D01*
X76010642Y-135378457D01*
X76016502Y-135385250D01*
X76024033Y-135390125D01*
X76024037Y-135390129D01*
X76037816Y-135399049D01*
X76052779Y-135410404D01*
X76065078Y-135421273D01*
X76065081Y-135421275D01*
X76071808Y-135427220D01*
X76087982Y-135434820D01*
X76098820Y-135439913D01*
X76113699Y-135448174D01*
X76138774Y-135464408D01*
X76163110Y-135471671D01*
X76180659Y-135478370D01*
X76203636Y-135489167D01*
X76212503Y-135490551D01*
X76212507Y-135490552D01*
X76233131Y-135493770D01*
X76249738Y-135497526D01*
X76269741Y-135503496D01*
X76269745Y-135503497D01*
X76278348Y-135506064D01*
X76287324Y-135506114D01*
X76287326Y-135506114D01*
X76296580Y-135506165D01*
X76312691Y-135506254D01*
X76313300Y-135506280D01*
X76314216Y-135506423D01*
X76316747Y-135506424D01*
X76316751Y-135506424D01*
X76344504Y-135506433D01*
X76345162Y-135506435D01*
X76420567Y-135506854D01*
X76420568Y-135506854D01*
X76424003Y-135506873D01*
X76425167Y-135506540D01*
X76426327Y-135506460D01*
X87899767Y-135510285D01*
X87967879Y-135530310D01*
X88014354Y-135583981D01*
X88024435Y-135654258D01*
X88012613Y-135692248D01*
X86692572Y-138355077D01*
X86125000Y-139500000D01*
X86938167Y-141200135D01*
X88473972Y-144411133D01*
X88485321Y-144481217D01*
X88456978Y-144546311D01*
X88397942Y-144585748D01*
X88360305Y-144591500D01*
X76337128Y-144591500D01*
X76336287Y-144591497D01*
X76259564Y-144590985D01*
X76250924Y-144593449D01*
X76250925Y-144593449D01*
X76230962Y-144599142D01*
X76214267Y-144602701D01*
X76193703Y-144605646D01*
X76193697Y-144605648D01*
X76184813Y-144606920D01*
X76161595Y-144617477D01*
X76144004Y-144623943D01*
X76119491Y-144630934D01*
X76111902Y-144635716D01*
X76111896Y-144635719D01*
X76094323Y-144646793D01*
X76079306Y-144654891D01*
X76052218Y-144667208D01*
X76045423Y-144673063D01*
X76045420Y-144673065D01*
X76032903Y-144683851D01*
X76017830Y-144694998D01*
X76003855Y-144703804D01*
X76003852Y-144703806D01*
X75996261Y-144708590D01*
X75990314Y-144715316D01*
X75990313Y-144715317D01*
X75976561Y-144730871D01*
X75964417Y-144742863D01*
X75941873Y-144762287D01*
X75936992Y-144769818D01*
X75936988Y-144769822D01*
X75928000Y-144783688D01*
X75916667Y-144798611D01*
X75910056Y-144806089D01*
X75899780Y-144817711D01*
X75895959Y-144825838D01*
X75887126Y-144844624D01*
X75878833Y-144859545D01*
X75862648Y-144884515D01*
X75860076Y-144893117D01*
X75855342Y-144908946D01*
X75848652Y-144926452D01*
X75837803Y-144949525D01*
X75836418Y-144958390D01*
X75836417Y-144958392D01*
X75833209Y-144978920D01*
X75829438Y-144995563D01*
X75820914Y-145024066D01*
X75820859Y-145033042D01*
X75820859Y-145033043D01*
X75820704Y-145058443D01*
X75820675Y-145059121D01*
X75820522Y-145060101D01*
X75820521Y-145062791D01*
X75820520Y-145062803D01*
X75820505Y-145090645D01*
X75820503Y-145091345D01*
X75820024Y-145169721D01*
X75820375Y-145170949D01*
X75820459Y-145172185D01*
X75770505Y-234436563D01*
X75770503Y-234437271D01*
X75770018Y-234515679D01*
X68750000Y-234515679D01*
X68750000Y-139850000D01*
X69736835Y-139850000D01*
X69737223Y-139854930D01*
X69737223Y-139854933D01*
X69743503Y-139934727D01*
X69755465Y-140086711D01*
X69756619Y-140091518D01*
X69756620Y-140091524D01*
X69779473Y-140186711D01*
X69810895Y-140317594D01*
X69812788Y-140322165D01*
X69812789Y-140322167D01*
X69815272Y-140328160D01*
X69901760Y-140536963D01*
X69904346Y-140541183D01*
X70023241Y-140735202D01*
X70023245Y-140735208D01*
X70025824Y-140739416D01*
X70180031Y-140919969D01*
X70360584Y-141074176D01*
X70364792Y-141076755D01*
X70364798Y-141076759D01*
X70516195Y-141169535D01*
X70563037Y-141198240D01*
X70567607Y-141200133D01*
X70567611Y-141200135D01*
X70777833Y-141287211D01*
X70782406Y-141289105D01*
X70862609Y-141308360D01*
X71008476Y-141343380D01*
X71008482Y-141343381D01*
X71013289Y-141344535D01*
X71250000Y-141363165D01*
X71486711Y-141344535D01*
X71491518Y-141343381D01*
X71491524Y-141343380D01*
X71637391Y-141308360D01*
X71717594Y-141289105D01*
X71722167Y-141287211D01*
X71932389Y-141200135D01*
X71932393Y-141200133D01*
X71936963Y-141198240D01*
X71983805Y-141169535D01*
X72135202Y-141076759D01*
X72135208Y-141076755D01*
X72139416Y-141074176D01*
X72319969Y-140919969D01*
X72474176Y-140739416D01*
X72476755Y-140735208D01*
X72476759Y-140735202D01*
X72595654Y-140541183D01*
X72598240Y-140536963D01*
X72684729Y-140328160D01*
X72687211Y-140322167D01*
X72687212Y-140322165D01*
X72689105Y-140317594D01*
X72720527Y-140186711D01*
X72743380Y-140091524D01*
X72743381Y-140091518D01*
X72744535Y-140086711D01*
X72763165Y-139850000D01*
X72744535Y-139613289D01*
X72736581Y-139580155D01*
X72695776Y-139410194D01*
X72689105Y-139382406D01*
X72667242Y-139329624D01*
X72600135Y-139167611D01*
X72600133Y-139167607D01*
X72598240Y-139163037D01*
X72538039Y-139064798D01*
X72476759Y-138964798D01*
X72476755Y-138964792D01*
X72474176Y-138960584D01*
X72319969Y-138780031D01*
X72139416Y-138625824D01*
X72135208Y-138623245D01*
X72135202Y-138623241D01*
X71941183Y-138504346D01*
X71936963Y-138501760D01*
X71932393Y-138499867D01*
X71932389Y-138499865D01*
X71722167Y-138412789D01*
X71722165Y-138412788D01*
X71717594Y-138410895D01*
X71637391Y-138391640D01*
X71491524Y-138356620D01*
X71491518Y-138356619D01*
X71486711Y-138355465D01*
X71250000Y-138336835D01*
X71013289Y-138355465D01*
X71008482Y-138356619D01*
X71008476Y-138356620D01*
X70862609Y-138391640D01*
X70782406Y-138410895D01*
X70777835Y-138412788D01*
X70777833Y-138412789D01*
X70567611Y-138499865D01*
X70567607Y-138499867D01*
X70563037Y-138501760D01*
X70558817Y-138504346D01*
X70364798Y-138623241D01*
X70364792Y-138623245D01*
X70360584Y-138625824D01*
X70180031Y-138780031D01*
X70025824Y-138960584D01*
X70023245Y-138964792D01*
X70023241Y-138964798D01*
X69961961Y-139064798D01*
X69901760Y-139163037D01*
X69899867Y-139167607D01*
X69899865Y-139167611D01*
X69832758Y-139329624D01*
X69810895Y-139382406D01*
X69804224Y-139410194D01*
X69763420Y-139580155D01*
X69755465Y-139613289D01*
X69737308Y-139843995D01*
X69736835Y-139850000D01*
X68750000Y-139850000D01*
X68750000Y-44249943D01*
X127421780Y-44249943D01*
X127425276Y-44286921D01*
X127425941Y-44293961D01*
X127426500Y-44305819D01*
X127426500Y-55461233D01*
X127425973Y-55472416D01*
X127424298Y-55479909D01*
X127424547Y-55487835D01*
X127424547Y-55487836D01*
X127426438Y-55547986D01*
X127426500Y-55551945D01*
X127426500Y-55579856D01*
X127426997Y-55583790D01*
X127426997Y-55583791D01*
X127427005Y-55583856D01*
X127427938Y-55595693D01*
X127429327Y-55639889D01*
X127434978Y-55659339D01*
X127438987Y-55678700D01*
X127441526Y-55698797D01*
X127444445Y-55706168D01*
X127444445Y-55706170D01*
X127457804Y-55739912D01*
X127461649Y-55751142D01*
X127471771Y-55785983D01*
X127473982Y-55793593D01*
X127478015Y-55800412D01*
X127478017Y-55800417D01*
X127484293Y-55811028D01*
X127492988Y-55828776D01*
X127500448Y-55847617D01*
X127505110Y-55854033D01*
X127505110Y-55854034D01*
X127526436Y-55883387D01*
X127532952Y-55893307D01*
X127555458Y-55931362D01*
X127569779Y-55945683D01*
X127582619Y-55960716D01*
X127594528Y-55977107D01*
X127600634Y-55982158D01*
X127628605Y-56005298D01*
X127637384Y-56013288D01*
X130556343Y-58932247D01*
X130563887Y-58940537D01*
X130568000Y-58947018D01*
X130573777Y-58952443D01*
X130617667Y-58993658D01*
X130620509Y-58996413D01*
X130640231Y-59016135D01*
X130643373Y-59018572D01*
X130643433Y-59018619D01*
X130652445Y-59026317D01*
X130665878Y-59038931D01*
X130684679Y-59056586D01*
X130691622Y-59060403D01*
X130702431Y-59066345D01*
X130718953Y-59077198D01*
X130734959Y-59089614D01*
X130742237Y-59092764D01*
X130742238Y-59092764D01*
X130775537Y-59107174D01*
X130786187Y-59112391D01*
X130824940Y-59133695D01*
X130832615Y-59135666D01*
X130832616Y-59135666D01*
X130844562Y-59138733D01*
X130863267Y-59145137D01*
X130881855Y-59153181D01*
X130889678Y-59154420D01*
X130889688Y-59154423D01*
X130925524Y-59160099D01*
X130937144Y-59162505D01*
X130968959Y-59170673D01*
X130979970Y-59173500D01*
X131000224Y-59173500D01*
X131019934Y-59175051D01*
X131039943Y-59178220D01*
X131047835Y-59177474D01*
X131066580Y-59175702D01*
X131083962Y-59174059D01*
X131095819Y-59173500D01*
X158711233Y-59173500D01*
X158722416Y-59174027D01*
X158729909Y-59175702D01*
X158737835Y-59175453D01*
X158737836Y-59175453D01*
X158797986Y-59173562D01*
X158801945Y-59173500D01*
X158829856Y-59173500D01*
X158833791Y-59173003D01*
X158833856Y-59172995D01*
X158845693Y-59172062D01*
X158877951Y-59171048D01*
X158881970Y-59170922D01*
X158889889Y-59170673D01*
X158909343Y-59165021D01*
X158928700Y-59161013D01*
X158940930Y-59159468D01*
X158940931Y-59159468D01*
X158948797Y-59158474D01*
X158956168Y-59155555D01*
X158956170Y-59155555D01*
X158989912Y-59142196D01*
X159001142Y-59138351D01*
X159035983Y-59128229D01*
X159035984Y-59128229D01*
X159043593Y-59126018D01*
X159050412Y-59121985D01*
X159050417Y-59121983D01*
X159061028Y-59115707D01*
X159078776Y-59107012D01*
X159097617Y-59099552D01*
X159133387Y-59073564D01*
X159143307Y-59067048D01*
X159174535Y-59048580D01*
X159174538Y-59048578D01*
X159181362Y-59044542D01*
X159195683Y-59030221D01*
X159210717Y-59017380D01*
X159212431Y-59016135D01*
X159227107Y-59005472D01*
X159255298Y-58971395D01*
X159263288Y-58962616D01*
X163150000Y-55075905D01*
X163212312Y-55041879D01*
X163239095Y-55039000D01*
X169435000Y-55039000D01*
X169503121Y-55059002D01*
X169549614Y-55112658D01*
X169561000Y-55165000D01*
X169561000Y-55342733D01*
X169560473Y-55353916D01*
X169558798Y-55361409D01*
X169559047Y-55369335D01*
X169559047Y-55369336D01*
X169560938Y-55429486D01*
X169561000Y-55433445D01*
X169561000Y-55461356D01*
X169561497Y-55465290D01*
X169561497Y-55465291D01*
X169561505Y-55465356D01*
X169562438Y-55477193D01*
X169563827Y-55521389D01*
X169569478Y-55540839D01*
X169573487Y-55560200D01*
X169576026Y-55580297D01*
X169578945Y-55587668D01*
X169578945Y-55587670D01*
X169592304Y-55621412D01*
X169596149Y-55632642D01*
X169600465Y-55647497D01*
X169608482Y-55675093D01*
X169612515Y-55681912D01*
X169612517Y-55681917D01*
X169618793Y-55692528D01*
X169627488Y-55710276D01*
X169634948Y-55729117D01*
X169639610Y-55735533D01*
X169639610Y-55735534D01*
X169660936Y-55764887D01*
X169667452Y-55774807D01*
X169676362Y-55789872D01*
X169689958Y-55812862D01*
X169704279Y-55827183D01*
X169717119Y-55842216D01*
X169729028Y-55858607D01*
X169735365Y-55863849D01*
X169763093Y-55886788D01*
X169771874Y-55894778D01*
X170452853Y-56575758D01*
X170460387Y-56584037D01*
X170464500Y-56590518D01*
X170485596Y-56610328D01*
X170514151Y-56637143D01*
X170516993Y-56639898D01*
X170536730Y-56659635D01*
X170539927Y-56662115D01*
X170548947Y-56669818D01*
X170581179Y-56700086D01*
X170588125Y-56703905D01*
X170588128Y-56703907D01*
X170598934Y-56709848D01*
X170615453Y-56720699D01*
X170631459Y-56733114D01*
X170638728Y-56736259D01*
X170638732Y-56736262D01*
X170672037Y-56750674D01*
X170682687Y-56755891D01*
X170721440Y-56777195D01*
X170729115Y-56779166D01*
X170729116Y-56779166D01*
X170741062Y-56782233D01*
X170759767Y-56788637D01*
X170778355Y-56796681D01*
X170786178Y-56797920D01*
X170786188Y-56797923D01*
X170822024Y-56803599D01*
X170833644Y-56806005D01*
X170865459Y-56814173D01*
X170876470Y-56817000D01*
X170896724Y-56817000D01*
X170916434Y-56818551D01*
X170936443Y-56821720D01*
X170944335Y-56820974D01*
X170963080Y-56819202D01*
X170980462Y-56817559D01*
X170992319Y-56817000D01*
X173671733Y-56817000D01*
X173682916Y-56817527D01*
X173690409Y-56819202D01*
X173698335Y-56818953D01*
X173698336Y-56818953D01*
X173758486Y-56817062D01*
X173762445Y-56817000D01*
X173790356Y-56817000D01*
X173794291Y-56816503D01*
X173794356Y-56816495D01*
X173806193Y-56815562D01*
X173838451Y-56814548D01*
X173842470Y-56814422D01*
X173850389Y-56814173D01*
X173869843Y-56808521D01*
X173889200Y-56804513D01*
X173901430Y-56802968D01*
X173901431Y-56802968D01*
X173909297Y-56801974D01*
X173916668Y-56799055D01*
X173916670Y-56799055D01*
X173950412Y-56785696D01*
X173961642Y-56781851D01*
X173996483Y-56771729D01*
X173996484Y-56771729D01*
X174004093Y-56769518D01*
X174010912Y-56765485D01*
X174010917Y-56765483D01*
X174021528Y-56759207D01*
X174039276Y-56750512D01*
X174058117Y-56743052D01*
X174093887Y-56717064D01*
X174103807Y-56710548D01*
X174135035Y-56692080D01*
X174135038Y-56692078D01*
X174141862Y-56688042D01*
X174156183Y-56673721D01*
X174171217Y-56660880D01*
X174181193Y-56653632D01*
X174187607Y-56648972D01*
X174215788Y-56614907D01*
X174223778Y-56606126D01*
X174904758Y-55925147D01*
X174913037Y-55917613D01*
X174919518Y-55913500D01*
X174966144Y-55863848D01*
X174968898Y-55861007D01*
X174988635Y-55841270D01*
X174991115Y-55838073D01*
X174998820Y-55829051D01*
X175007730Y-55819563D01*
X175029086Y-55796821D01*
X175032905Y-55789875D01*
X175032907Y-55789872D01*
X175038848Y-55779066D01*
X175049699Y-55762547D01*
X175057258Y-55752801D01*
X175062114Y-55746541D01*
X175065259Y-55739272D01*
X175065262Y-55739268D01*
X175079674Y-55705963D01*
X175084891Y-55695313D01*
X175106195Y-55656560D01*
X175111233Y-55636937D01*
X175117637Y-55618234D01*
X175122533Y-55606920D01*
X175122533Y-55606919D01*
X175125681Y-55599645D01*
X175126920Y-55591822D01*
X175126923Y-55591812D01*
X175132599Y-55555976D01*
X175135005Y-55544356D01*
X175144028Y-55509211D01*
X175144028Y-55509210D01*
X175146000Y-55501530D01*
X175146000Y-55481276D01*
X175147551Y-55461565D01*
X175149480Y-55449386D01*
X175150720Y-55441557D01*
X175146559Y-55397538D01*
X175146000Y-55385681D01*
X175146000Y-53722267D01*
X175146527Y-53711084D01*
X175148202Y-53703591D01*
X175146062Y-53635514D01*
X175146000Y-53631555D01*
X175146000Y-53603644D01*
X175145495Y-53599644D01*
X175144562Y-53587801D01*
X175143422Y-53551529D01*
X175143173Y-53543610D01*
X175137522Y-53524158D01*
X175133514Y-53504806D01*
X175131967Y-53492563D01*
X175130974Y-53484703D01*
X175128056Y-53477332D01*
X175114700Y-53443597D01*
X175110855Y-53432370D01*
X175108074Y-53422798D01*
X175098518Y-53389907D01*
X175094484Y-53383085D01*
X175094481Y-53383079D01*
X175088206Y-53372468D01*
X175079510Y-53354718D01*
X175074972Y-53343256D01*
X175074969Y-53343251D01*
X175072052Y-53335883D01*
X175059401Y-53318470D01*
X175046073Y-53300125D01*
X175039557Y-53290207D01*
X175021075Y-53258957D01*
X175017042Y-53252137D01*
X175002718Y-53237813D01*
X174989876Y-53222778D01*
X174977972Y-53206393D01*
X174943906Y-53178211D01*
X174935127Y-53170222D01*
X174762152Y-52997247D01*
X174754612Y-52988961D01*
X174750500Y-52982482D01*
X174700848Y-52935856D01*
X174698007Y-52933102D01*
X174678270Y-52913365D01*
X174675073Y-52910885D01*
X174666051Y-52903180D01*
X174660481Y-52897949D01*
X174633821Y-52872914D01*
X174626875Y-52869095D01*
X174626872Y-52869093D01*
X174616066Y-52863152D01*
X174599547Y-52852301D01*
X174591753Y-52846256D01*
X174583541Y-52839886D01*
X174576272Y-52836741D01*
X174576268Y-52836738D01*
X174542963Y-52822326D01*
X174532313Y-52817109D01*
X174493560Y-52795805D01*
X174493559Y-52795805D01*
X174494740Y-52793657D01*
X174448350Y-52757456D01*
X174424878Y-52690452D01*
X174441357Y-52621394D01*
X174458863Y-52597731D01*
X174468159Y-52587832D01*
X174470913Y-52584991D01*
X174490634Y-52565270D01*
X174493112Y-52562075D01*
X174500818Y-52553053D01*
X174525658Y-52526601D01*
X174531086Y-52520821D01*
X174540846Y-52503068D01*
X174551699Y-52486545D01*
X174559253Y-52476806D01*
X174564113Y-52470541D01*
X174581676Y-52429957D01*
X174586883Y-52419327D01*
X174608195Y-52380560D01*
X174610166Y-52372883D01*
X174610168Y-52372878D01*
X174613232Y-52360942D01*
X174619638Y-52342230D01*
X174624534Y-52330917D01*
X174627681Y-52323645D01*
X174634597Y-52279981D01*
X174637004Y-52268360D01*
X174646028Y-52233211D01*
X174646028Y-52233210D01*
X174648000Y-52225530D01*
X174648000Y-52205269D01*
X174649551Y-52185558D01*
X174651479Y-52173385D01*
X174652719Y-52165557D01*
X174648559Y-52121546D01*
X174648000Y-52109689D01*
X174648000Y-50924268D01*
X174648527Y-50913085D01*
X174650202Y-50905592D01*
X174648062Y-50837501D01*
X174648000Y-50833544D01*
X174648000Y-50805644D01*
X174647496Y-50801653D01*
X174646563Y-50789811D01*
X174645423Y-50753536D01*
X174645174Y-50745611D01*
X174639521Y-50726152D01*
X174635512Y-50706793D01*
X174635346Y-50705483D01*
X174632974Y-50686703D01*
X174630058Y-50679337D01*
X174630056Y-50679331D01*
X174616700Y-50645598D01*
X174612855Y-50634368D01*
X174602730Y-50599517D01*
X174602730Y-50599516D01*
X174600519Y-50591907D01*
X174590205Y-50574466D01*
X174581508Y-50556713D01*
X174576972Y-50545258D01*
X174574052Y-50537883D01*
X174548063Y-50502112D01*
X174541547Y-50492192D01*
X174523078Y-50460963D01*
X174519042Y-50454138D01*
X174504718Y-50439814D01*
X174491883Y-50424787D01*
X174479972Y-50408393D01*
X174445903Y-50380208D01*
X174437125Y-50372220D01*
X174332648Y-50267744D01*
X174325112Y-50259462D01*
X174321000Y-50252982D01*
X174271347Y-50206355D01*
X174268506Y-50203601D01*
X174248770Y-50183865D01*
X174245573Y-50181385D01*
X174236551Y-50173680D01*
X174223815Y-50161720D01*
X174204321Y-50143414D01*
X174197375Y-50139595D01*
X174197372Y-50139593D01*
X174186566Y-50133652D01*
X174170047Y-50122801D01*
X174169315Y-50122233D01*
X174154041Y-50110386D01*
X174146772Y-50107241D01*
X174146768Y-50107238D01*
X174113463Y-50092826D01*
X174102813Y-50087609D01*
X174064060Y-50066305D01*
X174044437Y-50061267D01*
X174025734Y-50054863D01*
X174014420Y-50049967D01*
X174014419Y-50049967D01*
X174007145Y-50046819D01*
X173999322Y-50045580D01*
X173999312Y-50045577D01*
X173963476Y-50039901D01*
X173951856Y-50037495D01*
X173916711Y-50028472D01*
X173916710Y-50028472D01*
X173909030Y-50026500D01*
X173888776Y-50026500D01*
X173869065Y-50024949D01*
X173856886Y-50023020D01*
X173849057Y-50021780D01*
X173841165Y-50022526D01*
X173805039Y-50025941D01*
X173793181Y-50026500D01*
X173692732Y-50026500D01*
X173624611Y-50006498D01*
X173617167Y-50001326D01*
X173568392Y-49964771D01*
X173568390Y-49964770D01*
X173561205Y-49959385D01*
X173424816Y-49908255D01*
X173362634Y-49901500D01*
X173024000Y-49901500D01*
X172955879Y-49881498D01*
X172909386Y-49827842D01*
X172898000Y-49775500D01*
X172898000Y-46573268D01*
X172898527Y-46562085D01*
X172900202Y-46554592D01*
X172899740Y-46539875D01*
X172898062Y-46486502D01*
X172898000Y-46482544D01*
X172898000Y-46454644D01*
X172897496Y-46450653D01*
X172896563Y-46438811D01*
X172896535Y-46437899D01*
X172895174Y-46394611D01*
X172892962Y-46386997D01*
X172892961Y-46386992D01*
X172889523Y-46375159D01*
X172885512Y-46355795D01*
X172883967Y-46343564D01*
X172882974Y-46335703D01*
X172880057Y-46328336D01*
X172880056Y-46328331D01*
X172866698Y-46294592D01*
X172862854Y-46283365D01*
X172858389Y-46267999D01*
X172850518Y-46240907D01*
X172840207Y-46223472D01*
X172831512Y-46205724D01*
X172824052Y-46186883D01*
X172798064Y-46151113D01*
X172791548Y-46141193D01*
X172773080Y-46109965D01*
X172773078Y-46109962D01*
X172769042Y-46103138D01*
X172754721Y-46088817D01*
X172741880Y-46073783D01*
X172734632Y-46063807D01*
X172729972Y-46057393D01*
X172695907Y-46029212D01*
X172687126Y-46021222D01*
X172160647Y-45494742D01*
X172153113Y-45486463D01*
X172149000Y-45479982D01*
X172099348Y-45433356D01*
X172096507Y-45430602D01*
X172076770Y-45410865D01*
X172073573Y-45408385D01*
X172064551Y-45400680D01*
X172032321Y-45370414D01*
X172025375Y-45366595D01*
X172025372Y-45366593D01*
X172014566Y-45360652D01*
X171998047Y-45349801D01*
X171992048Y-45345148D01*
X171982041Y-45337386D01*
X171974772Y-45334241D01*
X171974768Y-45334238D01*
X171941463Y-45319826D01*
X171930813Y-45314609D01*
X171892060Y-45293305D01*
X171872437Y-45288267D01*
X171853734Y-45281863D01*
X171842420Y-45276967D01*
X171842419Y-45276967D01*
X171835145Y-45273819D01*
X171827322Y-45272580D01*
X171827312Y-45272577D01*
X171791476Y-45266901D01*
X171779856Y-45264495D01*
X171744711Y-45255472D01*
X171744710Y-45255472D01*
X171737030Y-45253500D01*
X171729101Y-45253500D01*
X171721240Y-45252507D01*
X171721618Y-45249512D01*
X171667079Y-45233498D01*
X171647853Y-45217157D01*
X171647580Y-45217460D01*
X171642668Y-45213037D01*
X171638253Y-45208134D01*
X171576730Y-45163435D01*
X171489094Y-45099763D01*
X171489093Y-45099762D01*
X171483752Y-45095882D01*
X171477724Y-45093198D01*
X171477722Y-45093197D01*
X171315319Y-45020891D01*
X171315318Y-45020891D01*
X171309288Y-45018206D01*
X171215888Y-44998353D01*
X171128944Y-44979872D01*
X171128939Y-44979872D01*
X171122487Y-44978500D01*
X170931513Y-44978500D01*
X170925061Y-44979872D01*
X170925056Y-44979872D01*
X170838112Y-44998353D01*
X170744712Y-45018206D01*
X170738682Y-45020891D01*
X170738681Y-45020891D01*
X170576278Y-45093197D01*
X170576276Y-45093198D01*
X170570248Y-45095882D01*
X170564907Y-45099762D01*
X170564906Y-45099763D01*
X170560627Y-45102872D01*
X170415747Y-45208134D01*
X170411326Y-45213044D01*
X170411325Y-45213045D01*
X170300576Y-45336045D01*
X170287960Y-45350056D01*
X170192473Y-45515444D01*
X170133458Y-45697072D01*
X170132768Y-45703633D01*
X170132768Y-45703635D01*
X170118991Y-45834719D01*
X170113496Y-45887000D01*
X170114186Y-45893565D01*
X170128355Y-46028371D01*
X170133458Y-46076928D01*
X170192473Y-46258556D01*
X170195776Y-46264278D01*
X170195777Y-46264279D01*
X170210091Y-46289072D01*
X170287960Y-46423944D01*
X170292378Y-46428851D01*
X170292379Y-46428852D01*
X170404668Y-46553562D01*
X170415747Y-46565866D01*
X170570248Y-46678118D01*
X170576276Y-46680802D01*
X170576278Y-46680803D01*
X170699128Y-46735499D01*
X170744712Y-46755794D01*
X170838113Y-46775647D01*
X170925056Y-46794128D01*
X170925061Y-46794128D01*
X170931513Y-46795500D01*
X171122487Y-46795500D01*
X171128939Y-46794128D01*
X171128944Y-46794128D01*
X171215887Y-46775647D01*
X171309288Y-46755794D01*
X171452014Y-46692249D01*
X171522379Y-46682815D01*
X171586676Y-46712921D01*
X171592356Y-46718261D01*
X171594095Y-46720000D01*
X171628121Y-46782312D01*
X171631000Y-46809095D01*
X171631000Y-48410904D01*
X171610998Y-48479025D01*
X171557342Y-48525518D01*
X171487068Y-48535622D01*
X171422488Y-48506128D01*
X171415905Y-48499999D01*
X171363648Y-48447742D01*
X171356113Y-48439462D01*
X171352000Y-48432982D01*
X171302348Y-48386356D01*
X171299507Y-48383602D01*
X171279770Y-48363865D01*
X171276573Y-48361385D01*
X171267551Y-48353680D01*
X171241100Y-48328841D01*
X171235321Y-48323414D01*
X171228375Y-48319595D01*
X171228372Y-48319593D01*
X171217566Y-48313652D01*
X171201047Y-48302801D01*
X171200583Y-48302441D01*
X171185041Y-48290386D01*
X171177772Y-48287241D01*
X171177768Y-48287238D01*
X171144463Y-48272826D01*
X171133813Y-48267609D01*
X171095060Y-48246305D01*
X171075437Y-48241267D01*
X171056734Y-48234863D01*
X171045420Y-48229967D01*
X171045419Y-48229967D01*
X171038145Y-48226819D01*
X171030322Y-48225580D01*
X171030312Y-48225577D01*
X170994476Y-48219901D01*
X170982856Y-48217495D01*
X170947711Y-48208472D01*
X170947710Y-48208472D01*
X170940030Y-48206500D01*
X170919776Y-48206500D01*
X170900065Y-48204949D01*
X170899510Y-48204861D01*
X170880057Y-48201780D01*
X170872165Y-48202526D01*
X170836039Y-48205941D01*
X170824181Y-48206500D01*
X169984594Y-48206500D01*
X169916473Y-48186498D01*
X169895499Y-48169595D01*
X168660405Y-46934500D01*
X168626379Y-46872188D01*
X168623500Y-46845405D01*
X168623500Y-46712524D01*
X168643502Y-46644403D01*
X168655858Y-46628221D01*
X168729040Y-46546944D01*
X168801433Y-46421556D01*
X168821223Y-46387279D01*
X168821224Y-46387278D01*
X168824527Y-46381556D01*
X168883542Y-46199928D01*
X168888580Y-46152000D01*
X168902814Y-46016565D01*
X168903504Y-46010000D01*
X168892154Y-45902009D01*
X168884232Y-45826635D01*
X168884232Y-45826633D01*
X168883542Y-45820072D01*
X168824527Y-45638444D01*
X168729040Y-45473056D01*
X168712358Y-45454528D01*
X168605675Y-45336045D01*
X168605674Y-45336044D01*
X168601253Y-45331134D01*
X168501807Y-45258882D01*
X168452094Y-45222763D01*
X168452093Y-45222762D01*
X168446752Y-45218882D01*
X168440724Y-45216198D01*
X168440722Y-45216197D01*
X168278319Y-45143891D01*
X168278318Y-45143891D01*
X168272288Y-45141206D01*
X168178888Y-45121353D01*
X168091944Y-45102872D01*
X168091939Y-45102872D01*
X168085487Y-45101500D01*
X167894513Y-45101500D01*
X167888061Y-45102872D01*
X167888056Y-45102872D01*
X167801112Y-45121353D01*
X167707712Y-45141206D01*
X167701682Y-45143891D01*
X167701681Y-45143891D01*
X167539278Y-45216197D01*
X167539276Y-45216198D01*
X167533248Y-45218882D01*
X167527907Y-45222762D01*
X167527906Y-45222763D01*
X167478193Y-45258882D01*
X167378747Y-45331134D01*
X167374326Y-45336044D01*
X167374325Y-45336045D01*
X167267643Y-45454528D01*
X167250960Y-45473056D01*
X167155473Y-45638444D01*
X167096458Y-45820072D01*
X167095768Y-45826633D01*
X167095768Y-45826635D01*
X167087846Y-45902009D01*
X167076496Y-46010000D01*
X167077186Y-46016565D01*
X167091421Y-46152000D01*
X167096458Y-46199928D01*
X167155473Y-46381556D01*
X167158776Y-46387278D01*
X167158777Y-46387279D01*
X167178567Y-46421556D01*
X167250960Y-46546944D01*
X167324137Y-46628215D01*
X167354853Y-46692221D01*
X167356500Y-46712524D01*
X167356500Y-47081233D01*
X167355973Y-47092416D01*
X167354298Y-47099909D01*
X167354547Y-47107835D01*
X167354547Y-47107836D01*
X167356438Y-47167986D01*
X167356500Y-47171945D01*
X167356500Y-47199856D01*
X167356997Y-47203790D01*
X167356997Y-47203791D01*
X167357005Y-47203856D01*
X167357938Y-47215693D01*
X167359327Y-47259889D01*
X167364978Y-47279339D01*
X167368987Y-47298700D01*
X167371526Y-47318797D01*
X167374445Y-47326168D01*
X167374445Y-47326170D01*
X167387804Y-47359912D01*
X167391649Y-47371142D01*
X167403982Y-47413593D01*
X167408015Y-47420412D01*
X167408017Y-47420417D01*
X167414293Y-47431028D01*
X167422988Y-47448776D01*
X167430448Y-47467617D01*
X167435110Y-47474033D01*
X167435110Y-47474034D01*
X167456436Y-47503387D01*
X167462952Y-47513307D01*
X167485458Y-47551362D01*
X167499779Y-47565683D01*
X167512619Y-47580716D01*
X167524528Y-47597107D01*
X167530634Y-47602158D01*
X167558605Y-47625298D01*
X167567384Y-47633288D01*
X168609000Y-48674905D01*
X168643026Y-48737217D01*
X168637961Y-48808033D01*
X168595414Y-48864868D01*
X168528894Y-48889679D01*
X168519905Y-48890000D01*
X164408094Y-48890000D01*
X164339973Y-48869998D01*
X164318999Y-48853095D01*
X163316405Y-47850500D01*
X163282379Y-47788188D01*
X163279500Y-47761405D01*
X163279500Y-46752524D01*
X163299502Y-46684403D01*
X163311858Y-46668221D01*
X163385040Y-46586944D01*
X163444169Y-46484529D01*
X163477223Y-46427279D01*
X163477224Y-46427278D01*
X163480527Y-46421556D01*
X163539542Y-46239928D01*
X163544343Y-46194254D01*
X163558814Y-46056565D01*
X163559504Y-46050000D01*
X163543950Y-45902009D01*
X163540232Y-45866635D01*
X163540232Y-45866633D01*
X163539542Y-45860072D01*
X163480527Y-45678444D01*
X163385040Y-45513056D01*
X163367137Y-45493172D01*
X163261675Y-45376045D01*
X163261674Y-45376044D01*
X163257253Y-45371134D01*
X163140765Y-45286500D01*
X163108094Y-45262763D01*
X163108093Y-45262762D01*
X163102752Y-45258882D01*
X163096724Y-45256198D01*
X163096722Y-45256197D01*
X162934319Y-45183891D01*
X162934318Y-45183891D01*
X162928288Y-45181206D01*
X162834887Y-45161353D01*
X162747944Y-45142872D01*
X162747939Y-45142872D01*
X162741487Y-45141500D01*
X162550513Y-45141500D01*
X162544061Y-45142872D01*
X162544056Y-45142872D01*
X162457113Y-45161353D01*
X162363712Y-45181206D01*
X162357682Y-45183891D01*
X162357681Y-45183891D01*
X162195278Y-45256197D01*
X162195276Y-45256198D01*
X162189248Y-45258882D01*
X162183907Y-45262762D01*
X162183906Y-45262763D01*
X162151235Y-45286500D01*
X162034747Y-45371134D01*
X162030326Y-45376044D01*
X162030325Y-45376045D01*
X161924864Y-45493172D01*
X161906960Y-45513056D01*
X161811473Y-45678444D01*
X161752458Y-45860072D01*
X161751768Y-45866633D01*
X161751768Y-45866635D01*
X161748050Y-45902009D01*
X161732496Y-46050000D01*
X161733186Y-46056565D01*
X161747658Y-46194254D01*
X161752458Y-46239928D01*
X161811473Y-46421556D01*
X161814776Y-46427278D01*
X161814777Y-46427279D01*
X161847831Y-46484529D01*
X161906960Y-46586944D01*
X161980137Y-46668215D01*
X162010853Y-46732221D01*
X162012500Y-46752524D01*
X162012500Y-47997233D01*
X162011973Y-48008416D01*
X162010298Y-48015909D01*
X162010547Y-48023835D01*
X162010547Y-48023836D01*
X162012438Y-48083986D01*
X162012500Y-48087945D01*
X162012500Y-48115856D01*
X162012997Y-48119790D01*
X162012997Y-48119791D01*
X162013005Y-48119856D01*
X162013938Y-48131693D01*
X162015327Y-48175889D01*
X162020978Y-48195339D01*
X162024987Y-48214700D01*
X162027526Y-48234797D01*
X162030445Y-48242168D01*
X162030445Y-48242170D01*
X162043804Y-48275912D01*
X162047649Y-48287142D01*
X162050002Y-48295242D01*
X162059982Y-48329593D01*
X162064015Y-48336412D01*
X162064017Y-48336417D01*
X162070293Y-48347028D01*
X162078988Y-48364776D01*
X162086448Y-48383617D01*
X162091110Y-48390033D01*
X162091110Y-48390034D01*
X162112436Y-48419387D01*
X162118952Y-48429307D01*
X162129855Y-48447742D01*
X162141458Y-48467362D01*
X162155779Y-48481683D01*
X162168619Y-48496716D01*
X162180528Y-48513107D01*
X162207744Y-48535622D01*
X162214605Y-48541298D01*
X162223384Y-48549288D01*
X163589848Y-49915753D01*
X163597388Y-49924039D01*
X163601500Y-49930518D01*
X163607277Y-49935943D01*
X163651151Y-49977143D01*
X163653993Y-49979898D01*
X163673730Y-49999635D01*
X163676927Y-50002115D01*
X163685947Y-50009818D01*
X163718179Y-50040086D01*
X163725125Y-50043905D01*
X163725128Y-50043907D01*
X163735934Y-50049848D01*
X163752453Y-50060699D01*
X163768459Y-50073114D01*
X163775728Y-50076259D01*
X163775732Y-50076262D01*
X163809037Y-50090674D01*
X163819687Y-50095891D01*
X163858440Y-50117195D01*
X163866115Y-50119166D01*
X163866116Y-50119166D01*
X163878062Y-50122233D01*
X163896767Y-50128637D01*
X163915355Y-50136681D01*
X163923178Y-50137920D01*
X163923188Y-50137923D01*
X163959024Y-50143599D01*
X163970644Y-50146005D01*
X164005789Y-50155028D01*
X164013470Y-50157000D01*
X164033724Y-50157000D01*
X164053434Y-50158551D01*
X164073443Y-50161720D01*
X164081335Y-50160974D01*
X164117461Y-50157559D01*
X164129319Y-50157000D01*
X168988223Y-50157000D01*
X169056344Y-50177002D01*
X169102837Y-50230658D01*
X169112760Y-50299671D01*
X169112755Y-50299684D01*
X169106000Y-50361866D01*
X169106000Y-50958134D01*
X169112755Y-51020316D01*
X169115529Y-51027716D01*
X169116534Y-51031942D01*
X169116534Y-51090239D01*
X169112395Y-51107646D01*
X169106869Y-51158514D01*
X169106500Y-51165328D01*
X169106500Y-51191885D01*
X169110975Y-51207124D01*
X169112365Y-51208329D01*
X169120048Y-51210000D01*
X169140800Y-51210000D01*
X169208921Y-51230002D01*
X169241627Y-51260436D01*
X169245855Y-51266078D01*
X169245858Y-51266081D01*
X169251239Y-51273261D01*
X169258423Y-51278645D01*
X169365872Y-51359174D01*
X169408387Y-51416033D01*
X169413413Y-51486852D01*
X169379353Y-51549145D01*
X169365872Y-51560826D01*
X169311833Y-51601326D01*
X169245327Y-51626174D01*
X169236268Y-51626500D01*
X168476200Y-51626500D01*
X168408079Y-51606498D01*
X168388853Y-51590157D01*
X168388580Y-51590460D01*
X168383668Y-51586037D01*
X168379253Y-51581134D01*
X168269647Y-51501500D01*
X168230094Y-51472763D01*
X168230093Y-51472762D01*
X168224752Y-51468882D01*
X168218724Y-51466198D01*
X168218722Y-51466197D01*
X168056319Y-51393891D01*
X168056318Y-51393891D01*
X168050288Y-51391206D01*
X167956887Y-51371353D01*
X167869944Y-51352872D01*
X167869939Y-51352872D01*
X167863487Y-51351500D01*
X167672513Y-51351500D01*
X167666061Y-51352872D01*
X167666056Y-51352872D01*
X167579113Y-51371353D01*
X167485712Y-51391206D01*
X167479682Y-51393891D01*
X167479681Y-51393891D01*
X167317278Y-51466197D01*
X167317276Y-51466198D01*
X167311248Y-51468882D01*
X167305907Y-51472762D01*
X167305906Y-51472763D01*
X167266353Y-51501500D01*
X167156747Y-51581134D01*
X167028960Y-51723056D01*
X166933473Y-51888444D01*
X166874458Y-52070072D01*
X166873768Y-52076633D01*
X166873768Y-52076635D01*
X166869048Y-52121546D01*
X166854496Y-52260000D01*
X166855186Y-52266565D01*
X166872361Y-52429973D01*
X166874458Y-52449928D01*
X166933473Y-52631556D01*
X167028960Y-52796944D01*
X167033378Y-52801851D01*
X167033379Y-52801852D01*
X167138566Y-52918674D01*
X167156747Y-52938866D01*
X167225018Y-52988468D01*
X167265155Y-53017629D01*
X167311248Y-53051118D01*
X167317276Y-53053802D01*
X167317278Y-53053803D01*
X167390405Y-53086361D01*
X167485712Y-53128794D01*
X167579112Y-53148647D01*
X167666056Y-53167128D01*
X167666061Y-53167128D01*
X167672513Y-53168500D01*
X167863487Y-53168500D01*
X167869939Y-53167128D01*
X167869944Y-53167128D01*
X167956888Y-53148647D01*
X168050288Y-53128794D01*
X168145595Y-53086361D01*
X168218722Y-53053803D01*
X168218724Y-53053802D01*
X168224752Y-53051118D01*
X168270846Y-53017629D01*
X168357671Y-52954546D01*
X168379253Y-52938866D01*
X168383668Y-52933963D01*
X168388580Y-52929540D01*
X168389705Y-52930789D01*
X168443014Y-52897949D01*
X168476200Y-52893500D01*
X169236268Y-52893500D01*
X169304389Y-52913502D01*
X169311833Y-52918674D01*
X169360608Y-52955229D01*
X169360610Y-52955230D01*
X169367795Y-52960615D01*
X169504184Y-53011745D01*
X169566366Y-53018500D01*
X170162634Y-53018500D01*
X170224816Y-53011745D01*
X170232216Y-53008971D01*
X170236442Y-53007966D01*
X170294739Y-53007966D01*
X170312146Y-53012105D01*
X170363014Y-53017631D01*
X170369828Y-53018000D01*
X170396385Y-53018000D01*
X170411624Y-53013525D01*
X170412829Y-53012135D01*
X170414500Y-53004452D01*
X170414500Y-52999884D01*
X170914500Y-52999884D01*
X170918975Y-53015123D01*
X170920365Y-53016328D01*
X170928048Y-53017999D01*
X170959169Y-53017999D01*
X170965990Y-53017629D01*
X171016854Y-53012105D01*
X171035357Y-53007706D01*
X171093646Y-53007706D01*
X171112149Y-53012105D01*
X171163014Y-53017631D01*
X171169828Y-53018000D01*
X171196385Y-53018000D01*
X171211624Y-53013525D01*
X171212829Y-53012135D01*
X171214500Y-53004452D01*
X171214500Y-52999884D01*
X171714500Y-52999884D01*
X171718975Y-53015123D01*
X171720365Y-53016328D01*
X171728048Y-53017999D01*
X171759169Y-53017999D01*
X171765990Y-53017629D01*
X171816854Y-53012105D01*
X171835357Y-53007706D01*
X171893646Y-53007706D01*
X171912149Y-53012105D01*
X171963014Y-53017631D01*
X171969828Y-53018000D01*
X171996385Y-53018000D01*
X172011624Y-53013525D01*
X172012829Y-53012135D01*
X172014500Y-53004452D01*
X172014500Y-52528115D01*
X172010025Y-52512876D01*
X172008635Y-52511671D01*
X172000952Y-52510000D01*
X171732615Y-52510000D01*
X171717376Y-52514475D01*
X171716171Y-52515865D01*
X171714500Y-52523548D01*
X171714500Y-52999884D01*
X171214500Y-52999884D01*
X171214500Y-52528115D01*
X171210025Y-52512876D01*
X171208635Y-52511671D01*
X171200952Y-52510000D01*
X170932615Y-52510000D01*
X170917376Y-52514475D01*
X170916171Y-52515865D01*
X170914500Y-52523548D01*
X170914500Y-52999884D01*
X170414500Y-52999884D01*
X170414500Y-52983700D01*
X170434502Y-52915579D01*
X170464936Y-52882873D01*
X170470578Y-52878645D01*
X170470581Y-52878642D01*
X170477761Y-52873261D01*
X170483142Y-52866081D01*
X170483145Y-52866078D01*
X170559729Y-52763891D01*
X170565115Y-52756705D01*
X170616245Y-52620316D01*
X170623000Y-52558134D01*
X170623000Y-52136000D01*
X170643002Y-52067879D01*
X170696658Y-52021386D01*
X170749000Y-52010000D01*
X172180000Y-52010000D01*
X172248121Y-52030002D01*
X172294614Y-52083658D01*
X172306000Y-52136000D01*
X172306000Y-52558134D01*
X172312755Y-52620316D01*
X172363885Y-52756705D01*
X172369271Y-52763891D01*
X172405029Y-52811603D01*
X172429877Y-52878109D01*
X172429707Y-52893344D01*
X172428798Y-52897409D01*
X172429047Y-52905332D01*
X172429047Y-52905333D01*
X172430938Y-52965486D01*
X172431000Y-52969445D01*
X172431000Y-52997356D01*
X172431497Y-53001290D01*
X172431497Y-53001291D01*
X172431505Y-53001356D01*
X172432438Y-53013193D01*
X172433827Y-53057389D01*
X172439478Y-53076839D01*
X172443487Y-53096200D01*
X172446026Y-53116297D01*
X172448945Y-53123668D01*
X172448945Y-53123670D01*
X172462304Y-53157412D01*
X172466149Y-53168642D01*
X172476271Y-53203483D01*
X172478482Y-53211093D01*
X172482515Y-53217912D01*
X172482517Y-53217917D01*
X172488793Y-53228528D01*
X172497488Y-53246276D01*
X172504948Y-53265117D01*
X172509610Y-53271533D01*
X172509610Y-53271534D01*
X172530936Y-53300887D01*
X172537452Y-53310807D01*
X172559958Y-53348862D01*
X172574279Y-53363183D01*
X172587119Y-53378216D01*
X172599028Y-53394607D01*
X172605134Y-53399658D01*
X172633105Y-53422798D01*
X172641884Y-53430788D01*
X172992843Y-53781747D01*
X173000387Y-53790037D01*
X173004500Y-53796518D01*
X173010277Y-53801943D01*
X173054167Y-53843158D01*
X173057009Y-53845913D01*
X173076730Y-53865634D01*
X173079925Y-53868112D01*
X173088947Y-53875818D01*
X173121179Y-53906086D01*
X173128128Y-53909906D01*
X173138932Y-53915846D01*
X173155456Y-53926699D01*
X173171459Y-53939113D01*
X173212043Y-53956676D01*
X173222673Y-53961883D01*
X173261440Y-53983195D01*
X173269117Y-53985166D01*
X173269122Y-53985168D01*
X173281058Y-53988232D01*
X173299766Y-53994637D01*
X173318355Y-54002681D01*
X173326183Y-54003921D01*
X173326190Y-54003923D01*
X173362024Y-54009599D01*
X173373644Y-54012005D01*
X173408789Y-54021028D01*
X173416470Y-54023000D01*
X173436724Y-54023000D01*
X173456434Y-54024551D01*
X173476443Y-54027720D01*
X173484335Y-54026974D01*
X173520461Y-54023559D01*
X173532319Y-54023000D01*
X173753000Y-54023000D01*
X173821121Y-54043002D01*
X173867614Y-54096658D01*
X173879000Y-54149000D01*
X173879000Y-55106905D01*
X173858998Y-55175026D01*
X173842095Y-55196001D01*
X173524999Y-55513096D01*
X173462687Y-55547121D01*
X173435904Y-55550000D01*
X171271095Y-55550000D01*
X171202974Y-55529998D01*
X171181999Y-55513095D01*
X170865435Y-55196530D01*
X170831410Y-55134218D01*
X170836475Y-55063402D01*
X170860894Y-55023125D01*
X170933540Y-54942444D01*
X171029027Y-54777056D01*
X171088042Y-54595428D01*
X171090712Y-54570030D01*
X171107314Y-54412065D01*
X171108004Y-54405500D01*
X171107314Y-54398935D01*
X171088732Y-54222135D01*
X171088732Y-54222133D01*
X171088042Y-54215572D01*
X171029027Y-54033944D01*
X171022709Y-54023000D01*
X170991814Y-53969490D01*
X170933540Y-53868556D01*
X170917382Y-53850610D01*
X170810175Y-53731545D01*
X170810174Y-53731544D01*
X170805753Y-53726634D01*
X170680338Y-53635514D01*
X170656594Y-53618263D01*
X170656593Y-53618262D01*
X170651252Y-53614382D01*
X170645224Y-53611698D01*
X170645222Y-53611697D01*
X170482819Y-53539391D01*
X170482818Y-53539391D01*
X170476788Y-53536706D01*
X170372962Y-53514637D01*
X170296444Y-53498372D01*
X170296439Y-53498372D01*
X170289987Y-53497000D01*
X170099013Y-53497000D01*
X170092561Y-53498372D01*
X170092556Y-53498372D01*
X170016038Y-53514637D01*
X169912212Y-53536706D01*
X169906182Y-53539391D01*
X169906181Y-53539391D01*
X169743778Y-53611697D01*
X169743776Y-53611698D01*
X169737748Y-53614382D01*
X169732407Y-53618262D01*
X169732406Y-53618263D01*
X169708662Y-53635514D01*
X169583247Y-53726634D01*
X169578832Y-53731537D01*
X169573920Y-53735960D01*
X169572795Y-53734711D01*
X169519486Y-53767551D01*
X169486300Y-53772000D01*
X163003267Y-53772000D01*
X162992084Y-53771473D01*
X162984591Y-53769798D01*
X162976665Y-53770047D01*
X162976664Y-53770047D01*
X162916501Y-53771938D01*
X162912543Y-53772000D01*
X162884644Y-53772000D01*
X162880654Y-53772504D01*
X162868820Y-53773436D01*
X162824611Y-53774826D01*
X162816997Y-53777038D01*
X162816992Y-53777039D01*
X162805159Y-53780477D01*
X162785796Y-53784488D01*
X162765703Y-53787026D01*
X162758336Y-53789943D01*
X162758331Y-53789944D01*
X162724592Y-53803302D01*
X162713365Y-53807146D01*
X162670907Y-53819482D01*
X162664081Y-53823519D01*
X162653472Y-53829793D01*
X162635724Y-53838488D01*
X162616883Y-53845948D01*
X162610467Y-53850610D01*
X162610466Y-53850610D01*
X162581113Y-53871936D01*
X162571193Y-53878452D01*
X162539965Y-53896920D01*
X162539962Y-53896922D01*
X162533138Y-53900958D01*
X162518817Y-53915279D01*
X162503784Y-53928119D01*
X162487393Y-53940028D01*
X162482342Y-53946134D01*
X162459202Y-53974105D01*
X162451212Y-53982884D01*
X158564500Y-57869595D01*
X158502188Y-57903621D01*
X158475405Y-57906500D01*
X143893147Y-57906500D01*
X143825026Y-57886498D01*
X143778533Y-57832842D01*
X143768429Y-57762568D01*
X143797923Y-57697988D01*
X143819086Y-57678564D01*
X143895909Y-57622749D01*
X143901253Y-57618866D01*
X143905668Y-57613963D01*
X143910580Y-57609540D01*
X143911705Y-57610789D01*
X143965014Y-57577949D01*
X143998200Y-57573500D01*
X154951233Y-57573500D01*
X154962416Y-57574027D01*
X154969909Y-57575702D01*
X154977835Y-57575453D01*
X154977836Y-57575453D01*
X155037986Y-57573562D01*
X155041945Y-57573500D01*
X155069856Y-57573500D01*
X155073791Y-57573003D01*
X155073856Y-57572995D01*
X155085693Y-57572062D01*
X155117951Y-57571048D01*
X155121970Y-57570922D01*
X155129889Y-57570673D01*
X155149343Y-57565021D01*
X155168700Y-57561013D01*
X155180930Y-57559468D01*
X155180931Y-57559468D01*
X155188797Y-57558474D01*
X155196168Y-57555555D01*
X155196170Y-57555555D01*
X155229912Y-57542196D01*
X155241142Y-57538351D01*
X155275983Y-57528229D01*
X155275984Y-57528229D01*
X155283593Y-57526018D01*
X155290412Y-57521985D01*
X155290417Y-57521983D01*
X155301028Y-57515707D01*
X155318776Y-57507012D01*
X155337617Y-57499552D01*
X155373387Y-57473564D01*
X155383307Y-57467048D01*
X155414535Y-57448580D01*
X155414538Y-57448578D01*
X155421362Y-57444542D01*
X155435683Y-57430221D01*
X155450717Y-57417380D01*
X155460694Y-57410131D01*
X155467107Y-57405472D01*
X155495298Y-57371395D01*
X155503288Y-57362616D01*
X157872247Y-54993657D01*
X157880537Y-54986113D01*
X157887018Y-54982000D01*
X157933659Y-54932332D01*
X157936413Y-54929491D01*
X157956134Y-54909770D01*
X157958612Y-54906575D01*
X157966318Y-54897553D01*
X157991158Y-54871101D01*
X157996586Y-54865321D01*
X158006346Y-54847568D01*
X158017199Y-54831045D01*
X158024753Y-54821306D01*
X158029613Y-54815041D01*
X158047176Y-54774457D01*
X158052383Y-54763827D01*
X158073695Y-54725060D01*
X158075666Y-54717383D01*
X158075668Y-54717378D01*
X158078732Y-54705442D01*
X158085138Y-54686730D01*
X158090033Y-54675419D01*
X158093181Y-54668145D01*
X158094421Y-54660317D01*
X158094423Y-54660310D01*
X158100099Y-54624476D01*
X158102505Y-54612856D01*
X158111528Y-54577711D01*
X158111528Y-54577710D01*
X158113500Y-54570030D01*
X158113500Y-54549776D01*
X158115051Y-54530065D01*
X158116980Y-54517886D01*
X158118220Y-54510057D01*
X158114059Y-54466038D01*
X158113500Y-54454181D01*
X158113500Y-46824595D01*
X158133502Y-46756474D01*
X158150405Y-46735499D01*
X158295501Y-46590404D01*
X158357813Y-46556379D01*
X158384596Y-46553500D01*
X159301233Y-46553500D01*
X159312416Y-46554027D01*
X159319909Y-46555702D01*
X159327835Y-46555453D01*
X159327836Y-46555453D01*
X159387986Y-46553562D01*
X159391945Y-46553500D01*
X159419856Y-46553500D01*
X159423791Y-46553003D01*
X159423856Y-46552995D01*
X159435693Y-46552062D01*
X159467951Y-46551048D01*
X159471970Y-46550922D01*
X159479889Y-46550673D01*
X159499343Y-46545021D01*
X159518700Y-46541013D01*
X159530930Y-46539468D01*
X159530931Y-46539468D01*
X159538797Y-46538474D01*
X159546168Y-46535555D01*
X159546170Y-46535555D01*
X159579912Y-46522196D01*
X159591142Y-46518351D01*
X159625983Y-46508229D01*
X159625984Y-46508229D01*
X159633593Y-46506018D01*
X159640412Y-46501985D01*
X159640417Y-46501983D01*
X159651028Y-46495707D01*
X159668776Y-46487012D01*
X159687617Y-46479552D01*
X159723387Y-46453564D01*
X159733307Y-46447048D01*
X159764535Y-46428580D01*
X159764538Y-46428578D01*
X159771362Y-46424542D01*
X159785683Y-46410221D01*
X159800717Y-46397380D01*
X159810694Y-46390131D01*
X159817107Y-46385472D01*
X159845298Y-46351395D01*
X159853288Y-46342616D01*
X160032247Y-46163657D01*
X160040537Y-46156113D01*
X160047018Y-46152000D01*
X160093659Y-46102332D01*
X160096413Y-46099491D01*
X160116135Y-46079769D01*
X160118612Y-46076576D01*
X160126317Y-46067555D01*
X160156586Y-46035321D01*
X160164337Y-46021222D01*
X160166346Y-46017568D01*
X160177202Y-46001041D01*
X160184757Y-45991302D01*
X160184758Y-45991300D01*
X160189614Y-45985040D01*
X160207174Y-45944460D01*
X160212391Y-45933812D01*
X160229875Y-45902009D01*
X160229876Y-45902007D01*
X160233695Y-45895060D01*
X160235667Y-45887379D01*
X160238583Y-45880014D01*
X160239508Y-45880380D01*
X160263991Y-45834719D01*
X160374621Y-45711852D01*
X160374622Y-45711851D01*
X160379040Y-45706944D01*
X160474527Y-45541556D01*
X160533542Y-45359928D01*
X160534607Y-45349801D01*
X160552814Y-45176565D01*
X160553504Y-45170000D01*
X160546449Y-45102872D01*
X160534232Y-44986635D01*
X160534232Y-44986633D01*
X160533542Y-44980072D01*
X160474527Y-44798444D01*
X160467798Y-44786788D01*
X160424814Y-44712339D01*
X160379040Y-44633056D01*
X160365223Y-44617710D01*
X160255675Y-44496045D01*
X160255674Y-44496044D01*
X160251253Y-44491134D01*
X160151998Y-44419021D01*
X160102094Y-44382763D01*
X160102093Y-44382762D01*
X160096752Y-44378882D01*
X160090724Y-44376198D01*
X160090722Y-44376197D01*
X159928319Y-44303891D01*
X159928318Y-44303891D01*
X159922288Y-44301206D01*
X159828888Y-44281353D01*
X159741944Y-44262872D01*
X159741939Y-44262872D01*
X159735487Y-44261500D01*
X159544513Y-44261500D01*
X159538061Y-44262872D01*
X159538056Y-44262872D01*
X159451112Y-44281353D01*
X159357712Y-44301206D01*
X159351682Y-44303891D01*
X159351681Y-44303891D01*
X159189278Y-44376197D01*
X159189276Y-44376198D01*
X159183248Y-44378882D01*
X159177907Y-44382762D01*
X159177906Y-44382763D01*
X159128002Y-44419021D01*
X159028747Y-44491134D01*
X159024326Y-44496044D01*
X159024325Y-44496045D01*
X158914778Y-44617710D01*
X158900960Y-44633056D01*
X158855186Y-44712339D01*
X158812203Y-44786788D01*
X158805473Y-44798444D01*
X158746458Y-44980072D01*
X158745768Y-44986633D01*
X158745768Y-44986635D01*
X158733551Y-45102872D01*
X158726496Y-45170000D01*
X158724459Y-45169786D01*
X158707184Y-45228621D01*
X158653528Y-45275114D01*
X158601186Y-45286500D01*
X158148767Y-45286500D01*
X158137584Y-45285973D01*
X158130091Y-45284298D01*
X158122165Y-45284547D01*
X158122164Y-45284547D01*
X158062014Y-45286438D01*
X158058055Y-45286500D01*
X158030144Y-45286500D01*
X158026210Y-45286997D01*
X158026209Y-45286997D01*
X158026144Y-45287005D01*
X158014307Y-45287938D01*
X157982049Y-45288952D01*
X157978030Y-45289078D01*
X157970111Y-45289327D01*
X157950657Y-45294979D01*
X157931300Y-45298987D01*
X157919070Y-45300532D01*
X157919069Y-45300532D01*
X157911203Y-45301526D01*
X157903832Y-45304445D01*
X157903830Y-45304445D01*
X157870088Y-45317804D01*
X157858858Y-45321649D01*
X157824017Y-45331771D01*
X157824016Y-45331771D01*
X157816407Y-45333982D01*
X157809588Y-45338015D01*
X157809583Y-45338017D01*
X157798972Y-45344293D01*
X157781224Y-45352988D01*
X157762383Y-45360448D01*
X157755967Y-45365110D01*
X157755966Y-45365110D01*
X157726613Y-45386436D01*
X157716693Y-45392952D01*
X157685465Y-45411420D01*
X157685462Y-45411422D01*
X157678638Y-45415458D01*
X157664317Y-45429779D01*
X157649284Y-45442619D01*
X157632893Y-45454528D01*
X157616326Y-45474554D01*
X157604712Y-45488593D01*
X157596722Y-45497374D01*
X157087742Y-46006353D01*
X157079463Y-46013887D01*
X157072982Y-46018000D01*
X157035990Y-46057393D01*
X157026357Y-46067651D01*
X157023602Y-46070493D01*
X157003865Y-46090230D01*
X157001385Y-46093427D01*
X156993682Y-46102447D01*
X156963414Y-46134679D01*
X156959595Y-46141625D01*
X156959593Y-46141628D01*
X156953652Y-46152434D01*
X156942801Y-46168953D01*
X156930386Y-46184959D01*
X156927241Y-46192228D01*
X156927238Y-46192232D01*
X156912826Y-46225537D01*
X156907609Y-46236187D01*
X156886305Y-46274940D01*
X156884334Y-46282615D01*
X156884334Y-46282616D01*
X156881267Y-46294562D01*
X156874863Y-46313266D01*
X156866819Y-46331855D01*
X156865580Y-46339678D01*
X156865577Y-46339688D01*
X156859901Y-46375524D01*
X156857495Y-46387144D01*
X156853371Y-46403207D01*
X156846500Y-46429970D01*
X156846500Y-46450224D01*
X156844949Y-46469934D01*
X156841780Y-46489943D01*
X156842526Y-46497835D01*
X156845941Y-46533961D01*
X156846500Y-46545819D01*
X156846500Y-54175405D01*
X156826498Y-54243526D01*
X156809595Y-54264500D01*
X154804500Y-56269595D01*
X154742188Y-56303621D01*
X154715405Y-56306500D01*
X143998200Y-56306500D01*
X143930079Y-56286498D01*
X143910853Y-56270157D01*
X143910580Y-56270460D01*
X143905668Y-56266037D01*
X143901253Y-56261134D01*
X143746752Y-56148882D01*
X143740724Y-56146198D01*
X143740722Y-56146197D01*
X143578319Y-56073891D01*
X143578318Y-56073891D01*
X143572288Y-56071206D01*
X143478887Y-56051353D01*
X143391944Y-56032872D01*
X143391939Y-56032872D01*
X143385487Y-56031500D01*
X143194513Y-56031500D01*
X143188061Y-56032872D01*
X143188056Y-56032872D01*
X143101112Y-56051353D01*
X143007712Y-56071206D01*
X143001682Y-56073891D01*
X143001681Y-56073891D01*
X142839278Y-56146197D01*
X142839276Y-56146198D01*
X142833248Y-56148882D01*
X142678747Y-56261134D01*
X142674326Y-56266044D01*
X142674325Y-56266045D01*
X142640492Y-56303621D01*
X142550960Y-56403056D01*
X142455473Y-56568444D01*
X142396458Y-56750072D01*
X142395768Y-56756633D01*
X142395768Y-56756635D01*
X142377186Y-56933435D01*
X142376496Y-56940000D01*
X142396458Y-57129928D01*
X142455473Y-57311556D01*
X142550960Y-57476944D01*
X142555378Y-57481851D01*
X142555379Y-57481852D01*
X142637452Y-57573003D01*
X142678747Y-57618866D01*
X142684089Y-57622747D01*
X142684091Y-57622749D01*
X142760914Y-57678564D01*
X142804268Y-57734786D01*
X142810343Y-57805523D01*
X142777211Y-57868314D01*
X142715391Y-57903226D01*
X142686853Y-57906500D01*
X131374594Y-57906500D01*
X131306473Y-57886498D01*
X131285499Y-57869595D01*
X128730405Y-55314500D01*
X128696379Y-55252188D01*
X128693500Y-55225405D01*
X128693500Y-44584594D01*
X128713502Y-44516473D01*
X128730405Y-44495499D01*
X129437461Y-43788443D01*
X129499773Y-43754417D01*
X129570588Y-43759482D01*
X129600617Y-43775602D01*
X129727416Y-43867727D01*
X129732758Y-43871608D01*
X129738786Y-43874292D01*
X129738788Y-43874293D01*
X129901191Y-43946599D01*
X129907222Y-43949284D01*
X130000622Y-43969137D01*
X130087566Y-43987618D01*
X130087571Y-43987618D01*
X130094023Y-43988990D01*
X130284997Y-43988990D01*
X130291449Y-43987618D01*
X130291454Y-43987618D01*
X130378398Y-43969137D01*
X130471798Y-43949284D01*
X130477829Y-43946599D01*
X130640232Y-43874293D01*
X130640234Y-43874292D01*
X130646262Y-43871608D01*
X130800763Y-43759356D01*
X130928550Y-43617434D01*
X131024037Y-43452046D01*
X131083052Y-43270418D01*
X131103014Y-43080490D01*
X131083052Y-42890562D01*
X131024037Y-42708934D01*
X130928550Y-42543546D01*
X130912391Y-42525599D01*
X130805185Y-42406535D01*
X130805184Y-42406534D01*
X130800763Y-42401624D01*
X130646262Y-42289372D01*
X130640234Y-42286688D01*
X130640232Y-42286687D01*
X130477829Y-42214381D01*
X130477828Y-42214381D01*
X130471798Y-42211696D01*
X130378397Y-42191843D01*
X130291454Y-42173362D01*
X130291449Y-42173362D01*
X130284997Y-42171990D01*
X130094023Y-42171990D01*
X130087571Y-42173362D01*
X130087566Y-42173362D01*
X130000622Y-42191843D01*
X129907222Y-42211696D01*
X129901192Y-42214381D01*
X129901191Y-42214381D01*
X129738788Y-42286687D01*
X129738786Y-42286688D01*
X129732758Y-42289372D01*
X129578257Y-42401624D01*
X129573842Y-42406527D01*
X129568930Y-42410950D01*
X129567805Y-42409701D01*
X129514496Y-42442541D01*
X129481310Y-42446990D01*
X129328277Y-42446990D01*
X129317094Y-42446463D01*
X129309601Y-42444788D01*
X129301675Y-42445037D01*
X129301674Y-42445037D01*
X129241524Y-42446928D01*
X129237565Y-42446990D01*
X129209654Y-42446990D01*
X129205720Y-42447487D01*
X129205719Y-42447487D01*
X129205654Y-42447495D01*
X129193817Y-42448428D01*
X129162000Y-42449428D01*
X129157539Y-42449568D01*
X129149620Y-42449817D01*
X129131964Y-42454946D01*
X129130168Y-42455468D01*
X129110816Y-42459476D01*
X129103745Y-42460370D01*
X129090713Y-42462016D01*
X129083344Y-42464933D01*
X129083342Y-42464934D01*
X129049607Y-42478290D01*
X129038379Y-42482135D01*
X128995917Y-42494472D01*
X128989095Y-42498506D01*
X128989089Y-42498509D01*
X128978478Y-42504784D01*
X128960728Y-42513480D01*
X128949266Y-42518018D01*
X128949261Y-42518021D01*
X128941893Y-42520938D01*
X128935478Y-42525599D01*
X128906135Y-42546917D01*
X128896217Y-42553433D01*
X128877529Y-42564485D01*
X128858147Y-42575948D01*
X128843823Y-42590272D01*
X128828791Y-42603111D01*
X128812403Y-42615018D01*
X128784222Y-42649083D01*
X128776232Y-42657863D01*
X127667747Y-43766348D01*
X127659461Y-43773888D01*
X127652982Y-43778000D01*
X127647557Y-43783777D01*
X127606357Y-43827651D01*
X127603602Y-43830493D01*
X127583865Y-43850230D01*
X127581385Y-43853427D01*
X127573682Y-43862447D01*
X127543414Y-43894679D01*
X127539595Y-43901625D01*
X127539593Y-43901628D01*
X127533652Y-43912434D01*
X127522801Y-43928953D01*
X127510386Y-43944959D01*
X127507241Y-43952228D01*
X127507238Y-43952232D01*
X127492826Y-43985537D01*
X127487609Y-43996187D01*
X127466305Y-44034940D01*
X127464334Y-44042615D01*
X127464334Y-44042616D01*
X127461267Y-44054562D01*
X127454863Y-44073266D01*
X127446819Y-44091855D01*
X127445580Y-44099678D01*
X127445577Y-44099688D01*
X127439901Y-44135524D01*
X127437495Y-44147144D01*
X127426500Y-44189970D01*
X127426500Y-44210224D01*
X127424949Y-44229934D01*
X127421780Y-44249943D01*
X68750000Y-44249943D01*
X68750000Y-39850000D01*
X69736835Y-39850000D01*
X69755465Y-40086711D01*
X69756619Y-40091518D01*
X69756620Y-40091524D01*
X69786601Y-40216401D01*
X69810895Y-40317594D01*
X69901760Y-40536963D01*
X69904346Y-40541183D01*
X70023241Y-40735202D01*
X70023245Y-40735208D01*
X70025824Y-40739416D01*
X70180031Y-40919969D01*
X70360584Y-41074176D01*
X70364792Y-41076755D01*
X70364798Y-41076759D01*
X70558817Y-41195654D01*
X70563037Y-41198240D01*
X70567607Y-41200133D01*
X70567611Y-41200135D01*
X70777833Y-41287211D01*
X70782406Y-41289105D01*
X70862609Y-41308360D01*
X71008476Y-41343380D01*
X71008482Y-41343381D01*
X71013289Y-41344535D01*
X71250000Y-41363165D01*
X71486711Y-41344535D01*
X71491518Y-41343381D01*
X71491524Y-41343380D01*
X71637391Y-41308360D01*
X71717594Y-41289105D01*
X71722167Y-41287211D01*
X71932389Y-41200135D01*
X71932393Y-41200133D01*
X71936963Y-41198240D01*
X71941183Y-41195654D01*
X72135202Y-41076759D01*
X72135208Y-41076755D01*
X72139416Y-41074176D01*
X72319969Y-40919969D01*
X72474176Y-40739416D01*
X72476755Y-40735208D01*
X72476759Y-40735202D01*
X72595654Y-40541183D01*
X72598240Y-40536963D01*
X72689105Y-40317594D01*
X72713399Y-40216401D01*
X72743380Y-40091524D01*
X72743381Y-40091518D01*
X72744535Y-40086711D01*
X72763165Y-39850000D01*
X72744535Y-39613289D01*
X72742885Y-39606413D01*
X72690260Y-39387218D01*
X72689105Y-39382406D01*
X72662585Y-39318380D01*
X72600135Y-39167611D01*
X72600133Y-39167607D01*
X72598240Y-39163037D01*
X72594274Y-39156565D01*
X72476759Y-38964798D01*
X72476755Y-38964792D01*
X72474176Y-38960584D01*
X72324810Y-38785699D01*
X72323177Y-38783787D01*
X72319969Y-38780031D01*
X72139416Y-38625824D01*
X72135208Y-38623245D01*
X72135202Y-38623241D01*
X71941183Y-38504346D01*
X71936963Y-38501760D01*
X71932393Y-38499867D01*
X71932389Y-38499865D01*
X71722167Y-38412789D01*
X71722165Y-38412788D01*
X71717594Y-38410895D01*
X71637391Y-38391640D01*
X71491524Y-38356620D01*
X71491518Y-38356619D01*
X71486711Y-38355465D01*
X71250000Y-38336835D01*
X71013289Y-38355465D01*
X71008482Y-38356619D01*
X71008476Y-38356620D01*
X70862609Y-38391640D01*
X70782406Y-38410895D01*
X70777835Y-38412788D01*
X70777833Y-38412789D01*
X70567611Y-38499865D01*
X70567607Y-38499867D01*
X70563037Y-38501760D01*
X70558817Y-38504346D01*
X70364798Y-38623241D01*
X70364792Y-38623245D01*
X70360584Y-38625824D01*
X70180031Y-38780031D01*
X70176823Y-38783787D01*
X70175190Y-38785699D01*
X70025824Y-38960584D01*
X70023245Y-38964792D01*
X70023241Y-38964798D01*
X69905726Y-39156565D01*
X69901760Y-39163037D01*
X69899867Y-39167607D01*
X69899865Y-39167611D01*
X69837415Y-39318380D01*
X69810895Y-39382406D01*
X69809740Y-39387218D01*
X69757116Y-39606413D01*
X69755465Y-39613289D01*
X69737308Y-39843995D01*
X69736835Y-39850000D01*
X68750000Y-39850000D01*
X68750000Y-37325985D01*
X68770002Y-37257864D01*
X68823658Y-37211371D01*
X68875985Y-37199985D01*
X126766307Y-37192926D01*
X126834430Y-37212920D01*
X126880929Y-37266570D01*
X126891042Y-37336842D01*
X126886729Y-37355393D01*
X126885895Y-37357406D01*
X126884742Y-37362210D01*
X126884740Y-37362215D01*
X126838420Y-37555155D01*
X126830465Y-37588289D01*
X126812308Y-37818995D01*
X126811835Y-37825000D01*
X126830465Y-38061711D01*
X126831619Y-38066518D01*
X126831620Y-38066524D01*
X126849597Y-38141401D01*
X126885895Y-38292594D01*
X126887788Y-38297165D01*
X126887789Y-38297167D01*
X126972534Y-38501760D01*
X126976760Y-38511963D01*
X126979346Y-38516183D01*
X127098241Y-38710202D01*
X127098245Y-38710208D01*
X127100824Y-38714416D01*
X127255031Y-38894969D01*
X127435584Y-39049176D01*
X127439792Y-39051755D01*
X127439798Y-39051759D01*
X127621387Y-39163037D01*
X127638037Y-39173240D01*
X127642607Y-39175133D01*
X127642611Y-39175135D01*
X127852833Y-39262211D01*
X127857406Y-39264105D01*
X127937609Y-39283360D01*
X128083476Y-39318380D01*
X128083482Y-39318381D01*
X128088289Y-39319535D01*
X128325000Y-39338165D01*
X128561711Y-39319535D01*
X128566518Y-39318381D01*
X128566524Y-39318380D01*
X128712391Y-39283360D01*
X128792594Y-39264105D01*
X128797167Y-39262211D01*
X129007389Y-39175135D01*
X129007393Y-39175133D01*
X129011963Y-39173240D01*
X129028613Y-39163037D01*
X129210202Y-39051759D01*
X129210208Y-39051755D01*
X129214416Y-39049176D01*
X129394969Y-38894969D01*
X129549176Y-38714416D01*
X129551755Y-38710208D01*
X129551759Y-38710202D01*
X129670654Y-38516183D01*
X129673240Y-38511963D01*
X129677467Y-38501760D01*
X129762211Y-38297167D01*
X129762212Y-38297165D01*
X129764105Y-38292594D01*
X129800403Y-38141401D01*
X129818380Y-38066524D01*
X129818381Y-38066518D01*
X129819535Y-38061711D01*
X129838165Y-37825000D01*
X129819535Y-37588289D01*
X129811581Y-37555155D01*
X129765260Y-37362217D01*
X129764105Y-37357406D01*
X129763690Y-37356405D01*
X129761695Y-37286512D01*
X129798359Y-37225715D01*
X129862071Y-37194391D01*
X129883540Y-37192546D01*
X154310196Y-37189567D01*
X154378319Y-37209561D01*
X154403845Y-37231255D01*
X154464137Y-37298215D01*
X154494853Y-37362220D01*
X154496500Y-37382524D01*
X154496500Y-38651233D01*
X154495973Y-38662416D01*
X154494298Y-38669909D01*
X154494547Y-38677835D01*
X154494547Y-38677836D01*
X154496438Y-38737986D01*
X154496500Y-38741945D01*
X154496500Y-38769856D01*
X154496997Y-38773790D01*
X154496997Y-38773791D01*
X154497005Y-38773856D01*
X154497938Y-38785693D01*
X154499327Y-38829889D01*
X154504640Y-38848177D01*
X154504978Y-38849339D01*
X154508987Y-38868700D01*
X154511526Y-38888797D01*
X154514445Y-38896168D01*
X154514445Y-38896170D01*
X154527804Y-38929912D01*
X154531649Y-38941142D01*
X154543982Y-38983593D01*
X154548015Y-38990412D01*
X154548017Y-38990417D01*
X154554293Y-39001028D01*
X154562988Y-39018776D01*
X154570448Y-39037617D01*
X154575110Y-39044033D01*
X154575110Y-39044034D01*
X154596436Y-39073387D01*
X154602952Y-39083307D01*
X154625458Y-39121362D01*
X154631064Y-39126969D01*
X154639780Y-39135685D01*
X154652620Y-39150718D01*
X154664528Y-39167107D01*
X154670635Y-39172159D01*
X154698593Y-39195288D01*
X154707374Y-39203278D01*
X155010229Y-39506134D01*
X155010244Y-39506148D01*
X155046343Y-39542247D01*
X155053887Y-39550537D01*
X155058000Y-39557018D01*
X155063777Y-39562443D01*
X155107667Y-39603658D01*
X155110509Y-39606413D01*
X155130231Y-39626135D01*
X155133355Y-39628558D01*
X155133359Y-39628562D01*
X155133424Y-39628612D01*
X155142445Y-39636317D01*
X155174679Y-39666586D01*
X155181627Y-39670405D01*
X155181629Y-39670407D01*
X155192432Y-39676346D01*
X155208959Y-39687202D01*
X155218698Y-39694757D01*
X155218700Y-39694758D01*
X155224960Y-39699614D01*
X155265540Y-39717174D01*
X155276188Y-39722391D01*
X155314940Y-39743695D01*
X155322616Y-39745666D01*
X155322619Y-39745667D01*
X155334562Y-39748733D01*
X155353267Y-39755137D01*
X155371855Y-39763181D01*
X155379678Y-39764420D01*
X155379688Y-39764423D01*
X155415524Y-39770099D01*
X155427144Y-39772505D01*
X155462289Y-39781528D01*
X155469970Y-39783500D01*
X155490224Y-39783500D01*
X155509930Y-39785051D01*
X155523432Y-39787189D01*
X155587586Y-39817598D01*
X155590631Y-39820630D01*
X155594330Y-39823961D01*
X155598747Y-39828866D01*
X155604089Y-39832747D01*
X155604091Y-39832749D01*
X155747906Y-39937237D01*
X155753248Y-39941118D01*
X155759276Y-39943802D01*
X155759278Y-39943803D01*
X155884224Y-39999432D01*
X155927712Y-40018794D01*
X156021112Y-40038647D01*
X156108056Y-40057128D01*
X156108061Y-40057128D01*
X156114513Y-40058500D01*
X156305487Y-40058500D01*
X156311939Y-40057128D01*
X156311944Y-40057128D01*
X156398888Y-40038647D01*
X156492288Y-40018794D01*
X156535776Y-39999432D01*
X156660722Y-39943803D01*
X156660724Y-39943802D01*
X156666752Y-39941118D01*
X156792165Y-39850000D01*
X269636835Y-39850000D01*
X269655465Y-40086711D01*
X269656619Y-40091518D01*
X269656620Y-40091524D01*
X269686601Y-40216401D01*
X269710895Y-40317594D01*
X269801760Y-40536963D01*
X269804346Y-40541183D01*
X269923241Y-40735202D01*
X269923245Y-40735208D01*
X269925824Y-40739416D01*
X270080031Y-40919969D01*
X270260584Y-41074176D01*
X270264792Y-41076755D01*
X270264798Y-41076759D01*
X270458817Y-41195654D01*
X270463037Y-41198240D01*
X270467607Y-41200133D01*
X270467611Y-41200135D01*
X270677833Y-41287211D01*
X270682406Y-41289105D01*
X270762609Y-41308360D01*
X270908476Y-41343380D01*
X270908482Y-41343381D01*
X270913289Y-41344535D01*
X271150000Y-41363165D01*
X271386711Y-41344535D01*
X271391518Y-41343381D01*
X271391524Y-41343380D01*
X271537391Y-41308360D01*
X271617594Y-41289105D01*
X271622167Y-41287211D01*
X271832389Y-41200135D01*
X271832393Y-41200133D01*
X271836963Y-41198240D01*
X271841183Y-41195654D01*
X272035202Y-41076759D01*
X272035208Y-41076755D01*
X272039416Y-41074176D01*
X272219969Y-40919969D01*
X272374176Y-40739416D01*
X272376755Y-40735208D01*
X272376759Y-40735202D01*
X272495654Y-40541183D01*
X272498240Y-40536963D01*
X272589105Y-40317594D01*
X272613399Y-40216401D01*
X272643380Y-40091524D01*
X272643381Y-40091518D01*
X272644535Y-40086711D01*
X272663165Y-39850000D01*
X272644535Y-39613289D01*
X272642885Y-39606413D01*
X272590260Y-39387218D01*
X272589105Y-39382406D01*
X272562585Y-39318380D01*
X272500135Y-39167611D01*
X272500133Y-39167607D01*
X272498240Y-39163037D01*
X272494274Y-39156565D01*
X272376759Y-38964798D01*
X272376755Y-38964792D01*
X272374176Y-38960584D01*
X272224810Y-38785699D01*
X272223177Y-38783787D01*
X272219969Y-38780031D01*
X272039416Y-38625824D01*
X272035208Y-38623245D01*
X272035202Y-38623241D01*
X271841183Y-38504346D01*
X271836963Y-38501760D01*
X271832393Y-38499867D01*
X271832389Y-38499865D01*
X271622167Y-38412789D01*
X271622165Y-38412788D01*
X271617594Y-38410895D01*
X271537391Y-38391640D01*
X271391524Y-38356620D01*
X271391518Y-38356619D01*
X271386711Y-38355465D01*
X271150000Y-38336835D01*
X270913289Y-38355465D01*
X270908482Y-38356619D01*
X270908476Y-38356620D01*
X270762609Y-38391640D01*
X270682406Y-38410895D01*
X270677835Y-38412788D01*
X270677833Y-38412789D01*
X270467611Y-38499865D01*
X270467607Y-38499867D01*
X270463037Y-38501760D01*
X270458817Y-38504346D01*
X270264798Y-38623241D01*
X270264792Y-38623245D01*
X270260584Y-38625824D01*
X270080031Y-38780031D01*
X270076823Y-38783787D01*
X270075190Y-38785699D01*
X269925824Y-38960584D01*
X269923245Y-38964792D01*
X269923241Y-38964798D01*
X269805726Y-39156565D01*
X269801760Y-39163037D01*
X269799867Y-39167607D01*
X269799865Y-39167611D01*
X269737415Y-39318380D01*
X269710895Y-39382406D01*
X269709740Y-39387218D01*
X269657116Y-39606413D01*
X269655465Y-39613289D01*
X269637308Y-39843995D01*
X269636835Y-39850000D01*
X156792165Y-39850000D01*
X156821253Y-39828866D01*
X156872001Y-39772505D01*
X156944621Y-39691852D01*
X156944622Y-39691851D01*
X156949040Y-39686944D01*
X157024053Y-39557018D01*
X157041223Y-39527279D01*
X157041224Y-39527278D01*
X157044527Y-39521556D01*
X157103542Y-39339928D01*
X157105686Y-39319535D01*
X157122814Y-39156565D01*
X157123504Y-39150000D01*
X157111692Y-39037617D01*
X157104232Y-38966635D01*
X157104232Y-38966633D01*
X157103542Y-38960072D01*
X157044527Y-38778444D01*
X156949040Y-38613056D01*
X156847123Y-38499865D01*
X156825675Y-38476045D01*
X156825674Y-38476044D01*
X156821253Y-38471134D01*
X156666752Y-38358882D01*
X156660724Y-38356198D01*
X156660722Y-38356197D01*
X156498319Y-38283891D01*
X156498318Y-38283891D01*
X156492288Y-38281206D01*
X156393355Y-38260177D01*
X156311944Y-38242872D01*
X156311939Y-38242872D01*
X156305487Y-38241500D01*
X156114513Y-38241500D01*
X156108061Y-38242872D01*
X156108056Y-38242872D01*
X156026645Y-38260177D01*
X155927712Y-38281206D01*
X155926486Y-38281752D01*
X155857469Y-38283724D01*
X155796671Y-38247062D01*
X155765346Y-38183350D01*
X155763500Y-38161863D01*
X155763500Y-37382524D01*
X155783502Y-37314403D01*
X155795858Y-37298221D01*
X155856334Y-37231055D01*
X155916779Y-37193817D01*
X155949954Y-37189367D01*
X212531044Y-37182468D01*
X212599167Y-37202462D01*
X212645666Y-37256112D01*
X212655779Y-37326384D01*
X212653578Y-37337882D01*
X212613420Y-37505155D01*
X212605465Y-37538289D01*
X212587308Y-37768995D01*
X212586835Y-37775000D01*
X212587223Y-37779930D01*
X212587223Y-37779933D01*
X212590382Y-37820065D01*
X212605465Y-38011711D01*
X212606619Y-38016518D01*
X212606620Y-38016524D01*
X212636601Y-38141401D01*
X212660895Y-38242594D01*
X212662788Y-38247165D01*
X212662789Y-38247167D01*
X212731392Y-38412789D01*
X212751760Y-38461963D01*
X212754346Y-38466183D01*
X212873241Y-38660202D01*
X212873245Y-38660208D01*
X212875824Y-38664416D01*
X213030031Y-38844969D01*
X213210584Y-38999176D01*
X213214792Y-39001755D01*
X213214798Y-39001759D01*
X213398835Y-39114537D01*
X213413037Y-39123240D01*
X213417607Y-39125133D01*
X213417611Y-39125135D01*
X213606267Y-39203278D01*
X213632406Y-39214105D01*
X213712609Y-39233360D01*
X213858476Y-39268380D01*
X213858482Y-39268381D01*
X213863289Y-39269535D01*
X214100000Y-39288165D01*
X214336711Y-39269535D01*
X214341518Y-39268381D01*
X214341524Y-39268380D01*
X214487391Y-39233360D01*
X214567594Y-39214105D01*
X214593733Y-39203278D01*
X214782389Y-39125135D01*
X214782393Y-39125133D01*
X214786963Y-39123240D01*
X214801165Y-39114537D01*
X214985202Y-39001759D01*
X214985208Y-39001755D01*
X214989416Y-38999176D01*
X215169969Y-38844969D01*
X215324176Y-38664416D01*
X215326755Y-38660208D01*
X215326759Y-38660202D01*
X215445654Y-38466183D01*
X215448240Y-38461963D01*
X215468609Y-38412789D01*
X215537211Y-38247167D01*
X215537212Y-38247165D01*
X215539105Y-38242594D01*
X215563399Y-38141401D01*
X215593380Y-38016524D01*
X215593381Y-38016518D01*
X215594535Y-38011711D01*
X215613165Y-37775000D01*
X215594535Y-37538289D01*
X215586581Y-37505155D01*
X215546330Y-37337500D01*
X215549877Y-37266592D01*
X215591197Y-37208858D01*
X215657171Y-37182628D01*
X215668834Y-37182086D01*
X248454527Y-37178088D01*
X273648986Y-37175015D01*
X273717108Y-37195009D01*
G37*
%TD.AperFunction*%
%TA.AperFunction,Conductor*%
G36*
X187815447Y-170220002D02*
G01*
X187856391Y-170262906D01*
X214610610Y-216510906D01*
X214627407Y-216579887D01*
X214604244Y-216646999D01*
X214548475Y-216690934D01*
X214501545Y-216700000D01*
X128538049Y-216700000D01*
X128469928Y-216679998D01*
X128423435Y-216626342D01*
X128413331Y-216556068D01*
X128428882Y-216511082D01*
X155083643Y-170263082D01*
X155134989Y-170214050D01*
X155192810Y-170200000D01*
X187747326Y-170200000D01*
X187815447Y-170220002D01*
G37*
%TD.AperFunction*%
%TA.AperFunction,Conductor*%
G36*
X137115511Y-140920002D02*
G01*
X137156407Y-140962824D01*
X153483421Y-169136879D01*
X153500271Y-169205847D01*
X153483469Y-169263148D01*
X126738977Y-215494334D01*
X126687552Y-215543283D01*
X126617827Y-215556659D01*
X126551939Y-215530216D01*
X126516496Y-215486129D01*
X90507543Y-141080889D01*
X90495872Y-141010858D01*
X90523916Y-140945635D01*
X90582770Y-140905927D01*
X90620959Y-140900000D01*
X137047390Y-140900000D01*
X137115511Y-140920002D01*
G37*
%TD.AperFunction*%
%TA.AperFunction,Conductor*%
G36*
X214569666Y-63120002D02*
G01*
X214616159Y-63173658D01*
X214626263Y-63243932D01*
X214610610Y-63289094D01*
X187856391Y-109537094D01*
X187804966Y-109586043D01*
X187747326Y-109600000D01*
X155292674Y-109600000D01*
X155224553Y-109579998D01*
X155183609Y-109537094D01*
X128429390Y-63289094D01*
X128412593Y-63220113D01*
X128435756Y-63153001D01*
X128491525Y-63109066D01*
X128538455Y-63100000D01*
X214501545Y-63100000D01*
X214569666Y-63120002D01*
G37*
%TD.AperFunction*%
%TA.AperFunction,Conductor*%
G36*
X216488061Y-64269784D02*
G01*
X216523504Y-64313871D01*
X252532457Y-138719111D01*
X252544128Y-138789142D01*
X252516084Y-138854365D01*
X252457230Y-138894073D01*
X252419041Y-138900000D01*
X205992610Y-138900000D01*
X205924489Y-138879998D01*
X205883593Y-138837176D01*
X189556579Y-110663121D01*
X189539729Y-110594153D01*
X189556531Y-110536851D01*
X216296277Y-64313871D01*
X216301024Y-64305665D01*
X216352448Y-64256717D01*
X216422173Y-64243341D01*
X216488061Y-64269784D01*
G37*
%TD.AperFunction*%
M02*
